<svg width="512" height="512" viewBox="0 0 512 512" fill="none" xmlns="http://www.w3.org/2000/svg">
<path d="M61.8547 343.398C61.8547 364.199 75.5303 384.282 87.7316 397.454C95.0149 405.318 105.586 408.805 116.292 408.805H326.455C368.271 408.805 433.664 343.103 434.403 301.205C434.495 295.948 434.304 290.439 433.731 284.645C427.81 224.782 387.543 206.49 345.499 183.765C303.456 161.039 330.696 127.782 258.452 107.828C186.208 87.8734 109.82 153.833 112.188 215.359C114.557 276.885 61.8547 285.754 61.8547 343.398Z" fill="#E7E8FF"/>
<path d="M376.192 183.1C351.778 174.782 336.316 151.09 331.636 140.284C323.091 115.817 348.116 128.662 365.817 150.682C383.517 172.703 406.711 193.499 376.192 183.1Z" fill="#E7E8FF"/>
<path d="M338.659 407.591H279.081C262.497 401.475 240.384 394.134 245.912 380.066C251.44 365.998 279.081 384.959 286.45 371.504C293.821 358.047 234.243 356.212 240.384 339.086C246.526 321.959 283.994 343.979 279.081 327.463C274.166 310.95 232.4 317.066 234.243 299.94C236.085 282.814 267.411 310.95 271.095 291.376C274.78 271.804 240.998 236.938 267.411 230.822C293.821 224.705 286.45 288.318 295.665 291.376C304.877 294.434 313.475 261.405 326.374 276.084C339.273 290.765 317.162 323.794 326.374 339.086C335.589 354.377 348.486 297.493 363.228 323.794C375.021 344.835 351.763 388.425 338.659 407.591Z" fill="white"/>
<path d="M341.366 222.563L322.586 147.592C321.898 144.848 319.083 143.189 316.298 143.887L265.061 156.721C263.724 157.056 262.572 157.901 261.861 159.069L254.187 171.658C253.476 172.826 253.261 174.223 253.59 175.541L269.856 240.475C270.542 243.219 273.358 244.878 276.142 244.18L337.567 228.794C340.352 228.096 342.052 225.307 341.366 222.563Z" fill="white"/>
<path fill-rule="evenodd" clip-rule="evenodd" d="M260.971 158.545C261.825 157.143 263.207 156.129 264.811 155.727L316.049 142.893C319.392 142.056 322.77 144.047 323.594 147.339L342.373 222.31C343.199 225.603 341.158 228.951 337.816 229.787L276.391 245.173C273.05 246.011 269.672 244.021 268.848 240.727L252.581 175.793C252.186 174.211 252.443 172.535 253.298 171.134L260.971 158.545ZM265.31 157.715C264.24 157.983 263.318 158.658 262.75 159.593L255.077 172.182C254.507 173.116 254.334 174.234 254.599 175.288L270.863 240.222C271.415 242.417 273.666 243.744 275.895 243.186L337.317 227.801C339.546 227.243 340.907 225.01 340.357 222.816L321.577 147.844C321.027 145.649 318.775 144.322 316.547 144.88L265.31 157.715Z" fill="#032068"/>
<path d="M253.38 173.406L263.279 157.168L265.774 167.134C266.187 168.78 265.166 170.454 263.496 170.873L253.38 173.406Z" fill="#032068"/>
<path fill-rule="evenodd" clip-rule="evenodd" d="M285.093 170.358L269.203 174.338L268.706 172.351L284.597 168.371L285.093 170.358ZM313.161 178.686L272.824 188.791L272.326 186.803L312.665 176.7L313.161 178.686ZM316.254 191.031L275.915 201.136L275.418 199.147L315.757 189.044L316.254 191.031ZM319.421 203.677L279.083 213.78L278.586 211.794L318.925 201.69L319.421 203.677ZM315.028 217.257L282.025 225.524L281.527 223.536L314.532 215.269L315.028 217.257Z" fill="#E7E8FF"/>
<path d="M115.054 123.695C115.054 120.865 117.326 118.57 120.129 118.57H223.239C226.041 118.57 228.314 120.865 228.314 123.695V169.647C228.314 172.478 226.041 174.771 223.239 174.771H120.129C117.326 174.771 115.054 172.478 115.054 169.647V123.695Z" fill="white"/>
<path fill-rule="evenodd" clip-rule="evenodd" d="M114.039 123.695C114.039 120.298 116.765 117.545 120.129 117.545H223.239C226.603 117.545 229.33 120.298 229.33 123.695V169.646C229.33 173.042 226.603 175.797 223.239 175.797H120.129C116.765 175.797 114.039 173.042 114.039 169.646V123.695ZM120.129 119.595C117.886 119.595 116.069 121.431 116.069 123.695V169.646C116.069 171.911 117.886 173.747 120.129 173.747H223.239C225.481 173.747 227.299 171.911 227.299 169.646V123.695C227.299 121.431 225.481 119.595 223.239 119.595H120.129Z" fill="#032068"/>
<path d="M132.73 140.225C132.73 137.394 135.002 135.1 137.805 135.1H151.224C154.026 135.1 156.298 137.394 156.298 140.225V153.778C156.298 156.608 154.026 158.903 151.224 158.903H137.805C135.002 158.903 132.73 156.608 132.73 153.778V140.225Z" fill="#E7E8FF"/>
<path fill-rule="evenodd" clip-rule="evenodd" d="M209.983 140.092H172.667V138.042H209.983V140.092ZM190.986 157.945H172.667V155.894H190.986V157.945Z" fill="#032068"/>
<path d="M172.329 343.875C177.562 379.448 204.65 400.009 218.716 406.333C219.167 406.537 219.645 406.63 220.139 406.63H224.102C226.461 406.63 228.197 404.42 227.56 402.15C216.719 363.568 191.582 345.87 176.517 340.347C174.201 339.497 171.969 341.434 172.329 343.875Z" fill="white"/>
<path fill-rule="evenodd" clip-rule="evenodd" d="M176.099 341.487C174.713 340.978 173.293 342.098 173.529 343.697C178.683 378.731 205.387 399.008 219.215 405.227C219.494 405.354 219.8 405.417 220.14 405.417H224.102C225.688 405.417 226.802 403.944 226.391 402.478C215.665 364.3 190.828 346.887 176.099 341.487ZM171.128 344.05C170.645 340.77 173.689 338.017 176.935 339.207C192.335 344.854 217.774 362.834 228.728 401.823C229.591 404.896 227.232 407.844 224.102 407.844H220.14C219.488 407.844 218.839 407.719 218.218 407.441C203.914 401.009 176.442 380.167 171.128 344.05Z" fill="#032068"/>
<path fill-rule="evenodd" clip-rule="evenodd" d="M194.135 364.35C190.384 360.494 186.994 357.403 184.023 354.761L185.634 352.949C189.138 356.062 193.251 359.823 197.857 364.734C201.277 368.381 204.967 372.658 208.881 377.771V372.536H211.308V381.012C214.651 385.575 218.143 390.75 221.757 396.655C223.473 399.457 225.217 402.424 226.985 405.567L224.87 406.758C223.215 403.814 221.583 401.031 219.976 398.394L212.183 397.085L212.584 394.691L218.279 395.648C215.115 390.6 212.055 386.123 209.116 382.13C204.583 375.967 200.337 370.954 196.444 366.776H188.565V364.35H194.135Z" fill="#032068"/>
<path d="M214.794 282.102C192.123 329.993 208.393 382.51 220.704 405.263C221.326 406.412 222.531 407.096 223.836 407.096H229.535C231.448 407.096 233.039 405.596 233.155 403.686C236.868 343.282 227.654 301.169 220.689 282.303C219.668 279.538 216.055 279.438 214.794 282.102Z" fill="#032068"/>
<path d="M267.307 309.398C238.245 329.027 224.136 376.979 219.984 403.012C219.638 405.183 221.339 407.096 223.537 407.096H231.933C232.875 407.096 233.781 406.735 234.448 406.071C260.97 379.655 270.379 336.056 272.283 312.399C272.505 309.629 269.611 307.842 267.307 309.398Z" fill="white"/>
<path fill-rule="evenodd" clip-rule="evenodd" d="M271.073 312.301C271.22 310.477 269.392 309.454 267.986 310.403C253.735 320.027 243.06 336.676 235.418 354.285C227.787 371.872 223.246 390.267 221.182 403.203C220.959 404.605 222.053 405.883 223.538 405.883H231.933C232.564 405.883 233.16 405.64 233.592 405.21C246.677 392.18 255.58 374.862 261.449 357.806C267.319 340.756 270.128 324.043 271.073 312.301ZM266.627 308.391C269.831 306.229 273.792 308.779 273.493 312.496C272.534 324.412 269.688 341.328 263.745 358.596C257.804 375.856 248.743 393.547 235.305 406.931C234.402 407.828 233.184 408.31 231.933 408.31H223.538C220.626 408.31 218.317 405.762 218.786 402.821C220.875 389.724 225.464 371.125 233.192 353.319C240.908 335.537 251.817 318.396 266.627 308.391Z" fill="#032068"/>
<path d="M291.729 360.706C262.905 361.786 241.154 385.731 231.2 401.912C229.772 404.231 231.503 407.096 234.228 407.096H244.309C244.815 407.096 245.311 406.994 245.772 406.786C264.682 398.181 283.914 378.448 294.223 366.017C296.052 363.812 294.591 360.598 291.729 360.706Z" fill="#032068"/>
<path fill-rule="evenodd" clip-rule="evenodd" d="M218.733 289.912C218.414 299.593 218.365 308.944 218.522 317.872C218.643 324.784 218.89 331.442 219.23 337.801L224.428 329.399L226.493 330.675L219.472 342.023C219.964 350.048 220.6 357.562 221.321 364.471C222.174 372.669 223.143 380.017 224.121 386.354L228.625 378.914L230.702 380.17L224.713 390.062C225.908 397.298 227.081 402.971 228.04 406.803L225.684 407.392C224.686 403.4 223.473 397.505 222.246 390.013C221.105 383.049 219.953 374.697 218.957 365.199L210.186 357.574L211.779 355.741L218.598 361.672C217.991 355.471 217.452 348.822 217.027 341.786C216.576 334.357 216.252 326.496 216.102 318.276L209.978 309.233L211.987 307.872L216.038 313.853C215.958 306.125 216.035 298.098 216.308 289.831L218.733 289.912Z" fill="white"/>
<path fill-rule="evenodd" clip-rule="evenodd" d="M251.965 347.293C256.546 337.044 261.269 327.436 265.735 319.915L263.648 318.676C258.748 326.929 253.575 337.599 248.636 348.815C245.948 354.92 243.326 361.194 240.85 367.338L238.793 356.889L236.413 357.359L239.193 371.487C236.631 377.951 234.255 384.198 232.165 389.864C229.736 396.445 227.69 402.248 226.179 406.707L228.478 407.485C229.949 403.14 231.936 397.506 234.293 391.11L246.625 383.857L245.395 381.764L235.629 387.509C237.449 382.64 239.45 377.419 241.58 372.05C244.419 364.892 247.484 357.475 250.639 350.288L261.803 346.6L261.042 344.296L251.965 347.293Z" fill="#032068"/>
<path fill-rule="evenodd" clip-rule="evenodd" d="M287.592 367.579C280.931 370.464 274.164 374.409 267.708 378.783C263.639 381.539 259.702 384.461 255.998 387.39H262.356V389.816H252.981C244.398 396.843 237.367 403.63 233.353 407.926L231.579 406.269C235.723 401.835 242.966 394.853 251.781 387.663C256.207 384.055 261.033 380.389 266.068 376.963L269.662 369.224L271.863 370.246L269.928 374.414C275.381 370.92 281.025 367.78 286.626 365.351L287.592 367.579Z" fill="white"/>
<path d="M87.703 149.166L83.0989 155.34C82.8187 155.716 82.3618 155.897 81.9145 155.809L76.2238 154.693C74.9996 154.452 74.261 156.064 75.2058 156.913L79.6783 160.936C80.0048 161.229 80.159 161.682 80.0839 162.125L78.962 168.758C78.751 170.004 80.2171 170.776 81.0472 169.855L85.6412 164.759C85.911 164.459 86.302 164.315 86.6915 164.37L92.0084 165.128C93.206 165.299 93.8844 163.736 92.9736 162.904L89.0195 159.291C88.7021 159.001 88.5504 158.559 88.6185 158.124L89.8652 150.157C90.0691 148.854 88.4792 148.125 87.703 149.166Z" fill="#E7E8FF"/>
<path d="M401.387 160.842L400.906 164.306C400.875 164.516 400.73 164.698 400.527 164.775L397.943 165.76C397.387 165.972 397.45 166.761 398.03 166.848L400.776 167.259C400.976 167.289 401.142 167.421 401.212 167.607L402.26 170.383C402.458 170.904 403.232 170.834 403.364 170.281L404.087 167.226C404.13 167.047 404.256 166.896 404.429 166.821L406.779 165.793C407.308 165.562 407.231 164.805 406.668 164.717L404.227 164.332C404.033 164.301 403.869 164.172 403.799 163.991L402.498 160.682C402.287 160.14 401.469 160.258 401.387 160.842Z" fill="#E7E8FF"/>
<path d="M92.8477 259.741L90.4582 272.261L92.8477 285.377C99.0205 286.172 111.605 287.761 112.561 287.761C113.517 287.761 120.526 281.8 123.911 278.818L120.327 259.741C130.363 256.403 133.669 241.657 134.067 234.701C136.456 206.085 117.34 202.508 113.756 202.508C110.172 202.508 87.4712 202.508 84.4843 226.355C82.0948 245.432 89.0642 256.561 92.8477 259.741Z" fill="white"/>
<path fill-rule="evenodd" clip-rule="evenodd" d="M99.3673 206.512C93.1818 209.35 87.0431 215.003 85.6037 226.495C83.2523 245.269 90.1363 255.99 93.5742 258.879L94.0794 259.304L91.6056 272.266L93.8099 284.365C96.8674 284.757 101.106 285.295 104.799 285.751C106.816 285.998 108.668 286.222 110.074 286.382C110.778 286.462 111.366 286.527 111.806 286.572C112.026 286.594 112.205 286.611 112.341 286.621C112.375 286.624 112.404 286.626 112.431 286.628C112.476 286.606 112.537 286.573 112.615 286.527C112.86 286.384 113.193 286.164 113.603 285.868C114.42 285.283 115.472 284.462 116.613 283.535C118.686 281.853 121.012 279.861 122.684 278.397L119.037 258.983L119.97 258.673C124.537 257.154 127.694 252.99 129.774 248.136C131.843 243.306 132.747 238.013 132.941 234.638L132.941 234.622L132.943 234.609C134.114 220.576 130.012 212.898 125.393 208.707C120.712 204.459 115.326 203.634 113.756 203.634C111.987 203.634 105.627 203.64 99.3673 206.512ZM112.34 286.667C112.34 286.667 112.346 286.665 112.356 286.662C112.345 286.667 112.34 286.669 112.34 286.667ZM113.746 201.382H113.756C115.77 201.382 121.735 202.344 126.91 207.041C132.146 211.791 136.406 220.204 135.192 234.781C134.985 238.36 134.037 243.91 131.848 249.02C129.793 253.817 126.554 258.427 121.611 260.465L125.138 279.24L124.658 279.663C122.958 281.16 120.348 283.406 118.037 285.281C116.884 286.218 115.792 287.073 114.92 287.698C114.486 288.009 114.088 288.277 113.753 288.471C113.587 288.568 113.416 288.661 113.25 288.731C113.117 288.787 112.859 288.888 112.561 288.888C112.239 288.888 111.181 288.775 109.817 288.62C108.402 288.457 106.542 288.234 104.523 287.985C100.483 287.488 95.791 286.891 92.7031 286.493L91.8851 286.387L89.3106 272.256L91.6202 260.154C87.451 256.212 81.0328 244.833 83.3647 226.215C84.9124 213.861 91.6172 207.589 98.4247 204.466C105.146 201.382 111.916 201.382 113.746 201.382Z" fill="#032068"/>
<path d="M34.9015 407.593H128.69H181.146C209.819 407.593 203.846 375.079 197.275 359.12C191.3 340.639 179.468 313.992 165.13 291.338C153.661 273.213 132.075 269.08 123.314 269.279C122.517 272.857 119.132 280.009 107.184 280.009C95.2368 280.009 90.2586 272.857 88.6656 269.279C82.4928 269.279 65.3679 272.618 51.0307 285.972C33.1218 302.653 25.3542 340.768 18.1898 375.922L18.1748 375.996C12.44 404.135 26.9363 408.388 34.9015 407.593Z" fill="white"/>
<path fill-rule="evenodd" clip-rule="evenodd" d="M124.188 270.399C123.632 272.282 122.474 274.726 120.194 276.815C117.519 279.267 113.401 281.136 107.184 281.136C95.3673 281.136 89.9706 274.413 87.9587 270.418C81.4878 270.66 65.3759 274.15 51.8004 286.795C43.0687 294.929 36.7204 308.39 31.6566 324.359C26.6019 340.299 22.8802 358.555 19.2952 376.146L19.2803 376.219C16.4447 390.134 18.6806 397.805 22.252 401.906C25.831 406.016 31.0219 406.849 34.7892 406.473L34.8451 406.467H181.146C188.092 406.467 192.785 404.504 195.896 401.459C199.026 398.397 200.692 394.107 201.308 389.202C202.542 379.353 199.482 367.445 196.231 359.549L196.215 359.508L196.202 359.467C190.256 341.071 178.461 314.511 164.176 291.939C158.596 283.122 150.544 277.687 142.775 274.478C135.491 271.469 128.514 270.44 124.188 270.399ZM143.638 272.398C151.719 275.736 160.195 281.429 166.084 290.736C180.463 313.458 192.329 340.168 198.335 358.735C201.649 366.797 204.848 379.1 203.547 389.482C202.892 394.699 201.086 399.534 197.477 403.067C193.848 406.617 188.535 408.719 181.146 408.719H34.9568C30.7616 409.124 24.757 408.214 20.5491 403.383C16.3148 398.522 14.17 389.997 17.0692 375.77L17.0842 375.697L17.0914 375.663C20.6685 358.11 24.4113 339.744 29.5055 323.68C34.5938 307.634 41.0835 293.697 50.261 285.148C64.8345 271.575 82.2471 268.153 88.6656 268.153H89.3987L89.6966 268.822C91.1665 272.123 95.8097 278.885 107.184 278.885C112.915 278.885 116.464 277.176 118.668 275.157C120.893 273.118 121.849 270.665 122.212 269.036L122.404 268.174L123.288 268.153C127.826 268.051 135.569 269.063 143.638 272.398Z" fill="#032068"/>
<path d="M186.522 406.817C186.522 387.262 195.284 370.251 199.067 364.488C200.859 368.661 204.085 379.631 202.651 390.124C201.218 400.616 193.691 405.624 186.522 406.817Z" fill="#032068"/>
<path d="M148.29 396.681L145.9 382.372L132.758 387.738L148.29 396.681Z" fill="white"/>
<path fill-rule="evenodd" clip-rule="evenodd" d="M146.781 380.797L149.795 398.846L130.201 387.565L146.781 380.797ZM135.315 387.91L146.784 394.513L145.02 383.949L135.315 387.91Z" fill="#032068"/>
<path d="M74.9257 361.687L83.8864 325.32L82.0944 361.687L126.09 372.397C129.285 373.173 132.19 375.143 133.216 378.261C136.587 388.516 132.742 400.488 128.093 404.612C131.677 399.493 131.677 380.169 127.495 377.187C124.15 374.803 82.6917 367.053 62.3809 363.476L74.9257 361.687Z" fill="#032068"/>
<path d="M99.4187 247.817C97.0292 261.649 93.644 263.119 92.2502 262.125C75.5235 251.394 75.9271 217.108 86.2763 205.488C95.8343 194.756 103.003 198.931 122.717 194.161C142.43 189.39 149.001 197.738 145.417 208.469C140.257 223.916 123.911 215.624 119.73 217.412C115.548 219.201 110.172 223.969 107.782 233.508C105.393 243.048 104.198 241.259 102.406 235.894C100.613 230.528 95.8343 222.778 92.2502 232.317C89.3826 239.947 95.8343 245.83 99.4187 247.817Z" fill="#032068"/>
<path d="M169.909 407.595C169.909 391.378 145.815 386.529 134.067 386.132C134.067 394.24 129.088 403.818 126.301 407.595H169.909Z" fill="white"/>
<path fill-rule="evenodd" clip-rule="evenodd" d="M132.938 384.966L134.105 385.007C140.071 385.208 149.184 386.536 156.848 389.9C164.478 393.25 171.037 398.804 171.037 407.595V408.719H124.068L125.392 406.926C126.724 405.122 128.622 401.867 130.185 398.06C131.751 394.247 132.938 389.98 132.938 386.132V384.966ZM135.163 387.308C134.954 391.223 133.745 395.329 132.273 398.915C131.067 401.85 129.662 404.494 128.422 406.468H168.738C168.212 399.66 162.915 395.023 155.939 391.962C149.082 388.951 140.92 387.623 135.163 387.308Z" fill="#032068"/>
<path fill-rule="evenodd" clip-rule="evenodd" d="M16.8908 386.238C16.6508 397.677 20.7147 407.593 32.9953 407.593H43.8622C40.995 388.518 25.8301 376.991 18.6605 373.612C18.5032 374.383 18.3463 375.153 18.1897 375.922L18.1747 375.996C17.3966 379.814 16.9908 383.213 16.8908 386.238Z" fill="#032068"/>
<path d="M107.668 259.739C113.403 261.647 118.222 260.535 120.213 259.739L121.408 266.894C113.761 265.94 109.261 261.925 107.668 259.739Z" fill="#032068"/>
<path d="M184.73 365.679L145.9 379.39C156.204 372.159 161.947 369.737 172.186 365.679L166.211 322.755L176.964 363.295L184.73 365.679Z" fill="#032068"/>
<path d="M419.978 261.11L422.333 273.473L419.978 286.423C413.896 287.208 401.495 288.778 400.553 288.778C399.611 288.778 392.704 282.89 389.367 279.948L392.9 261.11C383.01 257.812 379.752 243.253 379.36 236.385C377.006 208.128 395.843 204.597 399.375 204.597C402.906 204.597 425.277 204.597 428.22 228.144C430.575 246.982 423.707 257.969 419.978 261.11Z" fill="white"/>
<path fill-rule="evenodd" clip-rule="evenodd" d="M413.512 208.644C419.579 211.432 425.603 216.986 427.017 228.294C429.329 246.805 422.554 257.355 419.197 260.181L418.654 260.639L421.1 273.478L418.944 285.333C415.937 285.72 411.798 286.246 408.189 286.691C406.2 286.935 404.376 287.155 402.992 287.314C402.299 287.394 401.719 287.457 401.287 287.502C401.07 287.524 400.894 287.539 400.761 287.551C400.739 287.553 400.72 287.553 400.701 287.555C400.662 287.534 400.613 287.507 400.55 287.471C400.312 287.333 399.988 287.116 399.585 286.826C398.781 286.249 397.747 285.44 396.624 284.525C394.6 282.88 392.332 280.933 390.688 279.492L394.288 260.294L393.283 259.958C388.823 258.471 385.729 254.392 383.684 249.61C381.65 244.854 380.761 239.64 380.571 236.315V236.3L380.57 236.285C379.418 222.454 383.452 214.905 387.977 210.792C392.567 206.619 397.848 205.81 399.375 205.81C401.116 205.81 407.364 205.816 413.512 208.644ZM400.806 287.602C400.806 287.602 400.8 287.601 400.789 287.597C400.8 287.601 400.806 287.604 400.806 287.602ZM399.386 203.384H399.375C397.37 203.384 391.467 204.339 386.343 208.997C381.157 213.712 376.951 222.054 378.15 236.471C378.354 240.015 379.29 245.506 381.452 250.564C383.473 255.287 386.656 259.843 391.52 261.886L388.048 280.402L388.565 280.858C390.24 282.336 392.813 284.554 395.092 286.408C396.228 287.333 397.307 288.179 398.169 288.797C398.597 289.106 398.993 289.372 399.326 289.567C399.491 289.664 399.666 289.756 399.833 289.828C399.968 289.884 400.237 289.992 400.553 289.992C400.877 289.992 401.929 289.879 403.268 289.726C404.663 289.567 406.496 289.345 408.486 289.099C412.467 288.608 417.091 288.019 420.134 287.626L421.014 287.514L423.567 273.468L421.299 261.554C425.436 257.599 431.718 246.344 429.425 227.994C427.895 215.755 421.262 209.534 414.525 206.437C407.881 203.384 401.193 203.384 399.386 203.384Z" fill="#032068"/>
<path d="M405.85 281.125C417.625 281.125 422.53 274.062 424.1 270.529L428.221 271.706L402.319 405.925H398.198H335.21L374.651 278.77L388.191 270.529H389.956C390.741 274.062 394.078 281.125 405.85 281.125Z" fill="white"/>
<path fill-rule="evenodd" clip-rule="evenodd" d="M423.419 269.071L422.991 270.036C421.554 273.27 417.009 279.912 405.851 279.912C400.225 279.912 396.754 278.233 394.604 276.258C392.431 274.261 391.496 271.862 391.143 270.266L390.931 269.315H387.85L373.629 277.972L333.563 407.139H403.321L429.623 270.845L423.419 269.071ZM389.021 271.742C389.583 273.602 390.731 275.995 392.962 278.045C395.619 280.485 399.703 282.339 405.851 282.339C417.278 282.339 422.646 275.97 424.747 271.976L426.819 272.568L401.318 404.712H336.857L375.675 279.569L388.531 271.742H389.021Z" fill="#032068"/>
<path d="M404.674 340.582C407.97 319.389 419.391 284.657 424.689 269.94C434.696 271.706 456.948 278.535 465.896 291.72C474.844 304.908 486.893 348.627 491.798 368.838C497.096 387.087 497.096 407.103 477.081 407.103H386.425C377.006 388.854 379.95 380.023 382.892 376.491C385.247 373.666 395.694 371.389 400.623 370.604C401.905 360.059 403.313 349.334 404.674 340.582Z" fill="white"/>
<path fill-rule="evenodd" clip-rule="evenodd" d="M423.893 268.568L424.9 268.745C429.993 269.643 438.154 271.819 446.189 275.442C454.197 279.052 462.239 284.17 466.901 291.04C469.217 294.455 471.688 299.764 474.158 306.048C476.636 312.352 479.145 319.715 481.521 327.282C486.27 342.403 490.513 358.398 492.971 368.526C495.633 377.704 497.027 387.514 495.109 395.11C494.141 398.942 492.313 402.275 489.323 404.642C486.328 407.011 482.29 408.317 477.081 408.317H385.686L385.346 407.659C375.825 389.21 378.566 379.788 381.96 375.714C382.737 374.782 384.049 374.019 385.466 373.383C386.925 372.727 388.666 372.135 390.455 371.616C393.629 370.696 397.051 369.983 399.529 369.556C400.78 359.298 402.149 348.916 403.475 340.395C406.791 319.075 418.249 284.245 423.547 269.529L423.893 268.568ZM425.482 271.322C420.05 286.544 409.079 320.154 405.873 340.768C404.514 349.5 403.108 360.211 401.828 370.751L401.717 371.659L400.814 371.802C398.385 372.19 394.593 372.944 391.13 373.948C389.398 374.449 387.777 375.006 386.461 375.596C385.102 376.206 384.227 376.786 383.824 377.267C381.363 380.221 378.264 388.296 387.167 405.888H477.081C481.881 405.888 485.347 404.692 487.816 402.737C490.289 400.782 491.883 397.971 492.756 394.516C494.515 387.552 493.264 378.24 490.632 369.176L490.626 369.15L490.619 369.125C488.171 359.038 483.939 343.083 479.205 328.009C476.837 320.471 474.349 313.168 471.898 306.935C469.441 300.68 467.05 295.581 464.892 292.403C460.605 286.085 453.048 281.197 445.191 277.654C437.873 274.355 430.437 272.287 425.482 271.322Z" fill="#032068"/>
<path d="M437.639 361.774L428.809 325.864L431.164 361.185L387.594 372.209C384.203 373.067 381.095 375.176 380.136 378.54C377.271 388.575 381.73 400.14 385.248 404.159C381.641 400.037 381.715 380.023 385.835 377.079C389.132 374.724 429.986 367.072 450.002 363.54L437.639 361.774Z" fill="#032068"/>
<path d="M415.858 242.86L422.335 270.529C435.05 270.529 449.021 277.593 454.124 281.126C457.066 262.876 445.882 255.224 439.407 241.096C432.93 226.966 438.229 194 405.263 194C378.89 194 375.044 217.547 376.417 229.321C388.192 226.024 395.059 213.82 397.022 208.128C398.2 211.072 408.206 237.563 411.739 231.088C415.27 224.613 420.569 222.846 423.511 231.088C425.866 237.681 419.391 241.683 415.858 242.86Z" fill="#032068"/>
<path d="M368.176 275.826C376.182 267.82 379.361 249.337 379.95 241.096C381.833 254.752 389.369 260.128 392.9 261.11L391.134 270.529C380.774 270.058 371.512 273.865 368.176 275.826Z" fill="#032068"/>
<path d="M468.84 407.103C471.665 388.265 485.912 376.294 492.976 372.959C496.792 388.352 495.92 407.103 479.437 407.103H468.84Z" fill="#032068"/>
<path d="M405.234 261.465C399.584 263.349 394.264 261.642 392.301 260.857L391.088 268.745C398.623 267.803 403.664 263.622 405.234 261.465Z" fill="#032068"/>
<path d="M283.136 304.829C283.998 308.345 287.986 310.816 288.705 312.098L275.604 323.511C273.452 319.297 270.409 310.248 259.649 308.929C244.586 307.28 243.275 295.996 250.807 294.347C256.831 293.029 267.354 295.151 272.913 296.25L266.561 293.489C265.682 293.106 265.385 292.005 265.953 291.232C266.266 290.806 266.781 290.574 267.31 290.606C269.474 290.736 273.446 290.927 276.681 293.291C279.861 295.615 282.061 300.433 283.136 304.829Z" fill="white"/>
<path fill-rule="evenodd" clip-rule="evenodd" d="M266.931 291.951C266.991 291.869 267.104 291.809 267.238 291.818L267.302 291.821C269.513 291.953 273.084 292.166 275.965 294.27C278.791 296.337 280.902 300.803 281.958 305.118C282.47 307.209 283.88 308.902 285.107 310.151C285.553 310.605 286.007 311.031 286.397 311.4C286.548 311.54 286.688 311.671 286.814 311.794C286.88 311.857 286.942 311.917 287 311.974L276.006 321.551C275.995 321.527 275.983 321.504 275.973 321.481C273.835 316.943 270.085 308.985 259.797 307.724L259.782 307.722C252.498 306.925 248.926 303.85 247.883 301.194C247.363 299.868 247.448 298.626 247.963 297.66C248.475 296.699 249.482 295.88 251.066 295.533C253.863 294.92 257.824 295.096 261.886 295.596C265.791 296.078 269.646 296.84 272.418 297.388C272.505 297.405 272.592 297.422 272.678 297.44L273.398 295.137L267.046 292.374C266.88 292.302 266.824 292.096 266.931 291.951ZM267.382 289.394C266.458 289.34 265.542 289.742 264.975 290.514C264.286 291.453 264.3 292.657 264.863 293.559C263.982 293.424 263.084 293.299 262.183 293.188C258.089 292.683 253.775 292.456 250.547 293.163C248.364 293.64 246.711 294.849 245.821 296.518C244.934 298.184 244.876 300.175 245.625 302.082C247.12 305.893 251.733 309.282 259.509 310.134C268.378 311.224 271.553 317.875 273.739 322.452C274.012 323.026 274.272 323.569 274.524 324.062L275.231 325.446L290.244 312.366L289.763 311.506C289.478 310.997 288.949 310.477 288.492 310.04C288.338 309.893 288.183 309.746 288.024 309.598C287.645 309.241 287.249 308.869 286.841 308.451C285.679 307.268 284.665 305.966 284.315 304.541C283.22 300.064 280.931 294.895 277.396 292.311C273.934 289.78 269.745 289.533 267.564 289.405C267.503 289.401 267.441 289.398 267.382 289.394Z" fill="#032068"/>
<path fill-rule="evenodd" clip-rule="evenodd" d="M388.78 269.94C382.894 283.675 370.178 317.034 366.411 340.582C362.643 364.129 359.74 394.347 358.758 407.103H329.912L330.854 404.746C323.535 404.688 315.711 402.638 311.074 399.449C301.655 392.974 269.339 333.517 269.339 326.453C269.339 319.389 282.878 307.616 288.765 307.616C291.569 307.616 299.047 314.96 306.555 322.335C314.812 330.445 323.106 338.591 325.263 337.049C326.866 335.904 327.934 332.626 329.506 327.798C331.977 320.208 335.695 308.796 344.69 295.842C348.421 290.469 352.836 286.039 357.395 282.486C366.915 273.37 382.148 270.319 388.78 269.94Z" fill="white"/>
<path fill-rule="evenodd" clip-rule="evenodd" d="M390.668 268.617L389.897 270.418C384.015 284.14 371.352 317.382 367.609 340.774C363.849 364.274 360.948 394.457 359.968 407.195L359.881 408.317H328.12L329.083 405.91C322.121 405.567 314.899 403.552 310.386 400.449C309.045 399.527 307.413 397.761 305.625 395.496C303.809 393.199 301.754 390.287 299.566 386.975C295.19 380.346 290.253 372.058 285.616 363.764C280.977 355.47 276.63 347.148 273.44 340.451C271.845 337.103 270.532 334.147 269.616 331.793C269.157 330.617 268.791 329.576 268.539 328.704C268.293 327.859 268.126 327.076 268.126 326.453C268.126 324.34 269.119 322.039 270.529 319.869C271.957 317.669 273.905 315.46 276.019 313.496C278.134 311.532 280.451 309.782 282.638 308.516C284.781 307.275 286.962 306.401 288.765 306.401C289.358 306.401 289.959 306.589 290.517 306.835C291.089 307.087 291.703 307.442 292.342 307.867C293.622 308.714 295.1 309.903 296.694 311.296C299.88 314.078 303.647 317.776 307.386 321.449L307.406 321.469C311.545 325.536 315.648 329.564 318.981 332.385C320.654 333.802 322.077 334.867 323.181 335.481C323.738 335.79 324.145 335.947 324.42 336.003C324.516 336.022 324.576 336.026 324.608 336.026C325.098 335.648 325.642 334.831 326.279 333.331C326.917 331.824 327.561 329.854 328.352 327.422L328.356 327.41C330.834 319.8 334.595 308.25 343.694 295.149C347.488 289.685 351.973 285.179 356.599 281.566C361.528 276.866 367.877 273.763 373.786 271.785C379.715 269.802 385.289 268.925 388.712 268.728L390.668 268.617ZM331.704 405.888H357.635C358.695 392.538 361.544 363.319 365.213 340.39C368.843 317.694 380.703 286.042 386.877 271.321C383.66 271.679 379.23 272.524 374.555 274.087C368.826 276.004 362.819 278.972 358.234 283.363L358.188 283.406L358.141 283.443C353.667 286.93 349.341 291.273 345.687 296.535C336.797 309.335 333.124 320.606 330.66 328.173L330.644 328.221C329.871 330.597 329.197 332.664 328.513 334.278C327.842 335.86 327.067 337.253 325.968 338.038C325.316 338.504 324.558 338.507 323.937 338.383C323.313 338.256 322.656 337.966 322 337.601C320.684 336.869 319.114 335.679 317.413 334.237C314.003 331.351 309.84 327.264 305.732 323.229L305.705 323.202C301.942 319.505 298.225 315.855 295.098 313.124C293.533 311.759 292.149 310.651 291.002 309.89C290.429 309.511 289.939 309.234 289.536 309.055C289.118 308.871 288.874 308.83 288.765 308.83C287.625 308.83 285.906 309.429 283.854 310.615C281.847 311.777 279.675 313.412 277.67 315.274C275.664 317.138 273.859 319.196 272.565 321.191C271.251 323.215 270.553 325.035 270.553 326.453C270.553 326.714 270.636 327.223 270.87 328.028C271.095 328.806 271.433 329.772 271.877 330.912C272.763 333.187 274.05 336.085 275.632 339.407C278.794 346.045 283.115 354.318 287.734 362.58C292.352 370.842 297.259 379.075 301.592 385.637C303.759 388.919 305.773 391.769 307.529 393.991C309.309 396.244 310.748 397.752 311.762 398.449C316.141 401.461 323.705 403.477 330.865 403.533L332.641 403.546L331.704 405.888Z" fill="#032068"/>
<path d="M349.926 328.219C348.051 351.101 340.545 392.049 337.417 407.103H329.911C333.414 399.394 344.923 352.305 349.926 328.219Z" fill="#032068"/>
<path d="M299.3 384.143C303.421 391.207 308.13 400.626 318.138 402.981C322.526 404.444 326.997 404.89 331.09 404.772L337.565 396.109C323.765 388.193 307.077 384.63 299.3 384.143Z" fill="#032068"/>
<path d="M344.04 407.101C344.04 391.089 367.783 386.302 379.361 385.91C379.361 393.916 383.481 401.804 387.014 407.101H344.04Z" fill="white"/>
<path fill-rule="evenodd" clip-rule="evenodd" d="M380.575 384.654L379.32 384.696C373.432 384.896 364.438 386.21 356.871 389.538C349.339 392.851 342.827 398.362 342.827 407.103V408.316H389.282L388.023 406.429C384.527 401.184 380.575 393.545 380.575 385.91V384.654ZM378.18 387.179C378.532 394.173 381.72 400.91 384.794 405.888H345.305C345.868 399.281 351.024 394.762 357.847 391.76C364.547 388.813 372.521 387.502 378.18 387.179Z" fill="#032068"/>
</svg>
