<svg width="700" height="700" viewBox="0 0 700 700" fill="none" xmlns="http://www.w3.org/2000/svg">
<path d="M151.102 447.272V410.452H87.6398V447.272H151.102Z" fill="#EBEBEB"/>
<path d="M152.124 549.977V520.898H72.9121V549.977H152.124Z" fill="#F5F5F5"/>
<path d="M78.61 550.313C78.862 550.313 79.058 543.663 79.058 535.473C79.058 527.283 78.862 520.619 78.61 520.619C78.358 520.619 78.176 527.269 78.176 535.473C78.176 543.677 78.4 550.313 78.61 550.313Z" fill="#FAFAFA"/>
<path d="M82.376 548.703C82.614 548.703 82.81 542.417 82.81 534.703C82.81 526.989 82.614 520.703 82.376 520.703C82.138 520.703 81.928 526.989 81.928 534.703C81.928 542.417 82.124 548.703 82.376 548.703Z" fill="#FAFAFA"/>
<path d="M136.486 536.27C136.486 536.032 126 535.822 113.05 535.822C100.1 535.822 89.614 536.032 89.614 536.27C89.614 536.507 100.114 536.718 113.05 536.718C125.986 536.718 136.486 536.507 136.486 536.27Z" fill="#FAFAFA"/>
<path d="M143.738 549.977C143.976 549.977 144.172 543.607 144.172 535.739C144.172 527.871 143.976 521.515 143.738 521.515C143.5 521.515 143.29 527.885 143.29 535.739C143.29 543.593 143.5 549.977 143.738 549.977Z" fill="#FAFAFA"/>
<path d="M147.14 549.976C147.378 549.976 147.574 543.438 147.574 535.388C147.574 527.338 147.378 520.8 147.14 520.8C146.902 520.8 146.692 527.324 146.692 535.388C146.692 543.452 146.888 549.976 147.14 549.976Z" fill="#FAFAFA"/>
<path d="M152.11 520.912V497.56H64.33V520.912H152.11Z" fill="#E0E0E0"/>
<path d="M104.65 521.066C105.75 520.096 106.749 519.017 107.632 517.846C109.382 515.774 111.734 512.848 114.24 509.558C116.746 506.268 119 503.216 120.4 500.976C121.298 499.813 122.072 498.561 122.71 497.238C121.666 498.266 120.728 499.396 119.91 500.612L113.498 509.012L107.1 517.412C106.162 518.544 105.341 519.768 104.65 521.066Z" fill="#FAFAFA"/>
<path d="M90.9019 521.164C91.0839 521.332 95.7179 516.236 101.234 509.796C106.75 503.356 111.034 497.994 110.894 497.84C110.754 497.686 106.078 502.768 100.562 509.222C95.0459 515.676 90.7199 521.01 90.9019 521.164Z" fill="#FAFAFA"/>
<path d="M152.166 622.425V611.253H68.5441V622.425H152.166Z" fill="#E0E0E0"/>
<path d="M79.94 621.964C80.234 621.964 80.472 619.626 80.472 616.728C80.472 613.83 80.234 611.506 79.94 611.506C79.646 611.506 79.408 613.844 79.408 616.728C79.408 619.612 79.646 621.964 79.94 621.964Z" fill="#FAFAFA"/>
<path d="M78.12 622.202C78.414 622.202 78.652 619.85 78.652 616.966C78.652 614.082 78.4 611.8 78.12 611.8C77.84 611.8 77.588 614.138 77.588 617.036C77.588 619.934 77.826 622.202 78.12 622.202Z" fill="#FAFAFA"/>
<path d="M145.712 621.964C145.992 621.964 146.23 619.626 146.23 616.728C146.23 613.83 145.992 611.506 145.712 611.506C145.432 611.506 145.18 613.844 145.18 616.728C145.18 619.612 145.418 621.964 145.712 621.964Z" fill="#FAFAFA"/>
<path d="M143.892 622.202C144.172 622.202 144.41 619.85 144.41 616.966C144.41 614.082 144.2 611.8 143.892 611.8C143.584 611.8 143.36 614.138 143.36 617.036C143.36 619.934 143.598 622.202 143.892 622.202Z" fill="#FAFAFA"/>
<path d="M133 616.504C133 616.21 123.424 615.986 111.622 615.986C99.8201 615.986 90.2161 616.21 90.2161 616.504C90.2161 616.798 99.8061 617.036 111.622 617.036C123.438 617.036 133 616.798 133 616.504Z" fill="#FAFAFA"/>
<path d="M151.634 572.377V550.033H68.0119V572.377H151.634Z" fill="#E0E0E0"/>
<path d="M152.712 556.304L152.25 556.052C151.956 555.884 151.48 555.674 150.85 555.408C149.033 554.639 147.129 554.093 145.18 553.784C142.052 553.225 138.828 553.687 135.982 555.1C134.219 556.036 132.714 557.392 131.6 559.048C130.31 560.931 129.766 563.226 130.074 565.488C130.266 566.718 130.794 567.871 131.6 568.82C132.027 569.337 132.567 569.75 133.179 570.027C133.79 570.304 134.457 570.437 135.128 570.416C135.817 570.357 136.487 570.157 137.096 569.83C137.705 569.503 138.241 569.054 138.67 568.512C139.578 567.433 140.139 566.106 140.28 564.704C140.408 563.259 140.224 561.804 139.741 560.437C139.258 559.07 138.487 557.823 137.48 556.78C135.362 554.544 132.509 553.147 129.444 552.846C126.284 552.536 123.094 552.932 120.106 554.008C116.931 555.008 114.114 556.91 112 559.482C110.905 560.87 110.243 562.55 110.096 564.312C110.006 565.226 110.119 566.15 110.426 567.016C110.733 567.882 111.228 568.67 111.874 569.324C112.578 570.012 113.509 570.42 114.492 570.472C115.483 570.518 116.464 570.248 117.292 569.702C118.863 568.656 119.963 567.038 120.358 565.194C120.697 563.415 120.573 561.579 119.997 559.863C119.42 558.146 118.412 556.607 117.068 555.394C114.371 553.145 111.025 551.815 107.52 551.6C104.223 551.209 100.88 551.534 97.72 552.552C94.6327 553.526 91.9989 555.578 90.3 558.334C89.4521 559.633 88.9249 561.116 88.7619 562.659C88.5988 564.202 88.8045 565.762 89.362 567.21C89.6464 567.937 90.1077 568.581 90.7043 569.085C91.3008 569.588 92.0136 569.935 92.778 570.094C93.5107 570.221 94.2619 570.197 94.9846 570.021C95.7073 569.845 96.3859 569.522 96.978 569.072C98.0183 568.154 98.7626 566.949 99.1165 565.608C99.4705 564.267 99.4181 562.851 98.966 561.54C98.1575 559.203 96.7008 557.144 94.766 555.604C91.5445 552.887 87.5104 551.321 83.3 551.152C80.1451 551.027 77.0113 551.716 74.2 553.154C72.4397 554.05 70.8406 555.233 69.468 556.654C69.006 557.158 68.67 557.536 68.46 557.816C68.3426 557.946 68.2437 558.092 68.166 558.25C69.9338 556.308 72.0401 554.705 74.382 553.518C77.1356 552.158 80.1904 551.521 83.258 551.67C87.3194 551.894 91.1929 553.454 94.276 556.108C96.083 557.569 97.4417 559.51 98.196 561.708C98.5864 562.857 98.6286 564.096 98.3172 565.269C98.0059 566.442 97.3549 567.497 96.446 568.302C95.9503 568.677 95.382 568.946 94.7771 569.09C94.1723 569.235 93.544 569.252 92.932 569.142C92.3009 569.017 91.7122 568.733 91.222 568.316C90.7318 567.9 90.3566 567.364 90.132 566.762C89.6521 565.448 89.4845 564.04 89.6424 562.65C89.8003 561.26 90.2795 559.926 91.042 558.754C92.6401 556.213 95.0926 554.327 97.958 553.434C100.968 552.478 104.147 552.178 107.282 552.552C110.56 552.77 113.683 554.025 116.2 556.136C117.409 557.228 118.317 558.613 118.837 560.158C119.357 561.702 119.471 563.354 119.168 564.956C118.832 566.532 117.899 567.917 116.564 568.82C115.961 569.257 115.225 569.472 114.482 569.426C113.738 569.38 113.034 569.076 112.49 568.568C111.962 568.014 111.562 567.35 111.32 566.624C111.078 565.898 111 565.128 111.09 564.368C111.218 562.808 111.808 561.321 112.784 560.098C114.775 557.687 117.419 555.903 120.4 554.96C123.242 553.923 126.278 553.53 129.29 553.812C132.136 554.064 134.793 555.343 136.766 557.41C137.706 558.345 138.433 559.472 138.9 560.714C139.366 561.955 139.56 563.283 139.468 564.606C139.258 567.056 137.382 569.464 135.128 569.604C134.575 569.627 134.024 569.522 133.519 569.296C133.013 569.07 132.567 568.73 132.216 568.302C131.494 567.465 131.01 566.45 130.816 565.362C130.534 563.274 131.032 561.155 132.216 559.412C133.248 557.828 134.652 556.521 136.304 555.604C139.036 554.211 142.138 553.721 145.166 554.204C147.078 554.466 148.956 554.935 150.766 555.604C152.04 556.066 152.698 556.346 152.712 556.304Z" fill="#FAFAFA"/>
<path d="M151.662 611.436V572.67H75.5019V611.436H151.662Z" fill="#EBEBEB"/>
<path d="M88.1999 610.106C88.4939 610.106 88.7179 601.706 88.7179 591.346C88.7179 580.986 88.4659 572.6 88.1999 572.6C87.9339 572.6 87.6679 581 87.6679 591.36C87.6679 601.72 87.8779 610.106 88.1999 610.106Z" fill="#E0E0E0"/>
<path d="M93.94 610.582C94.234 610.582 94.472 602.294 94.472 592.06C94.472 581.826 94.234 573.538 93.94 573.538C93.646 573.538 93.422 581.84 93.422 592.06C93.422 602.28 93.646 610.582 93.94 610.582Z" fill="#E0E0E0"/>
<path d="M143.066 611.8C143.36 611.8 143.584 603.078 143.584 592.298C143.584 581.518 143.36 572.796 143.066 572.796C142.772 572.796 142.534 581.532 142.534 592.298C142.534 603.064 142.8 611.8 143.066 611.8Z" fill="#E0E0E0"/>
<path d="M136.276 611.311C136.57 611.311 136.808 602.799 136.808 592.313C136.808 581.827 136.57 573.301 136.276 573.301C135.982 573.301 135.8 581.813 135.8 592.313C135.8 602.813 135.982 611.311 136.276 611.311Z" fill="#E0E0E0"/>
<path d="M151.102 497.574V475.23H67.4798V497.574H151.102Z" fill="#EBEBEB"/>
<path d="M152.18 481.516L151.718 481.264C151.41 481.096 150.948 480.886 150.318 480.62C148.521 479.863 146.641 479.318 144.718 478.996C141.586 478.438 138.357 478.899 135.506 480.312C133.75 481.259 132.251 482.619 131.138 484.274C129.857 486.156 129.319 488.445 129.626 490.7C129.816 491.93 130.344 493.084 131.152 494.032C131.577 494.535 132.11 494.937 132.711 495.209C133.311 495.48 133.965 495.614 134.624 495.6C135.316 495.544 135.988 495.346 136.6 495.018C137.212 494.69 137.75 494.24 138.18 493.696C139.088 492.618 139.649 491.29 139.79 489.888C139.91 488.437 139.714 486.978 139.216 485.61C138.719 484.242 137.93 482.998 136.906 481.964C134.792 479.723 131.937 478.325 128.87 478.03C125.714 477.72 122.529 478.116 119.546 479.192C116.358 480.19 113.528 482.092 111.398 484.666C110.3 486.052 109.637 487.733 109.494 489.496C109.402 490.413 109.514 491.339 109.821 492.208C110.128 493.077 110.624 493.867 111.272 494.522C111.98 495.205 112.908 495.612 113.89 495.67C114.88 495.703 115.856 495.434 116.69 494.9C118.262 493.853 119.366 492.237 119.77 490.392C120.111 488.613 119.987 486.777 119.411 485.06C118.834 483.344 117.825 481.805 116.48 480.592C113.825 478.348 110.526 477.005 107.058 476.756C103.761 476.372 100.42 476.696 97.258 477.708C94.1707 478.682 91.537 480.734 89.838 483.49C88.9901 484.789 88.463 486.272 88.2999 487.815C88.1368 489.358 88.3425 490.918 88.9 492.366C89.1822 493.094 89.6429 493.74 90.2398 494.244C90.8367 494.748 91.5506 495.094 92.316 495.25C93.0488 495.377 93.7998 495.352 94.5224 495.176C95.2449 495 95.9236 494.677 96.516 494.228C97.5536 493.312 98.2962 492.108 98.65 490.77C99.0039 489.432 98.9531 488.019 98.504 486.71C97.6999 484.367 96.2427 482.302 94.304 480.76C91.0771 478.053 87.0462 476.488 82.838 476.308C80.2706 476.234 77.7158 476.694 75.3351 477.658C72.9543 478.622 70.7993 480.069 69.0061 481.908C68.6495 482.273 68.3174 482.661 68.0121 483.07C67.8974 483.197 67.7986 483.338 67.718 483.49C69.473 481.557 71.5712 479.967 73.906 478.8C77.1 477.207 80.6942 476.597 84.2349 477.045C87.7757 477.494 91.1041 478.981 93.8 481.32C95.6156 482.773 96.9761 484.717 97.72 486.92C98.1132 488.07 98.1582 489.31 97.8494 490.486C97.5406 491.661 96.8917 492.72 95.984 493.528C95.486 493.899 94.9172 494.163 94.3127 494.306C93.7083 494.448 93.0811 494.464 92.47 494.354C91.8368 494.234 91.2456 493.952 90.7547 493.535C90.2637 493.118 89.8899 492.58 89.67 491.974C89.1824 490.661 89.0107 489.252 89.1688 487.861C89.3269 486.47 89.8103 485.136 90.58 483.966C92.1698 481.418 94.6254 479.529 97.496 478.646C100.505 477.69 103.685 477.389 106.82 477.764C110.065 477.997 113.152 479.252 115.64 481.348C116.855 482.439 117.768 483.826 118.29 485.374C118.813 486.921 118.927 488.577 118.622 490.182C118.282 491.753 117.349 493.131 116.018 494.032C115.42 494.455 114.696 494.661 113.965 494.615C113.233 494.569 112.54 494.275 112 493.78C111.474 493.225 111.076 492.561 110.834 491.835C110.592 491.11 110.512 490.34 110.6 489.58C110.742 488.047 111.326 486.588 112.28 485.38C114.263 482.964 116.896 481.167 119.868 480.2C122.709 479.162 125.746 478.77 128.758 479.052C131.602 479.311 134.257 480.588 136.234 482.65C137.172 483.586 137.897 484.714 138.361 485.955C138.825 487.197 139.016 488.524 138.922 489.846C138.726 492.31 136.85 494.704 134.582 494.858C134.031 494.874 133.483 494.764 132.98 494.536C132.478 494.308 132.034 493.968 131.684 493.542C130.956 492.709 130.472 491.692 130.284 490.602C130 488.518 130.499 486.403 131.684 484.666C132.721 483.07 134.135 481.753 135.8 480.83C138.53 479.432 141.634 478.941 144.662 479.43C146.572 479.701 148.449 480.17 150.262 480.83C150.889 481.091 151.529 481.32 152.18 481.516Z" fill="#FAFAFA"/>
<path d="M179.746 653.492V622.44H63.252V653.492H179.746Z" fill="#F5F5F5"/>
<path d="M151.102 475.243V446.207H72.8977V475.243H151.102Z" fill="#E0E0E0"/>
<path d="M111.902 445.466C112.37 445.237 112.789 444.918 113.134 444.528C114.176 443.544 115.055 442.4 115.738 441.14C116.758 439.265 117.391 437.203 117.6 435.078C117.841 432.46 117.407 429.823 116.34 427.42C115.248 424.886 113.904 422.674 113.12 420.504C112.318 418.645 112.06 416.596 112.378 414.596C112.626 413.258 113.27 412.024 114.226 411.054C114.912 410.368 115.43 410.144 115.388 410.074C114.86 410.165 114.372 410.414 113.988 410.788C112.884 411.723 112.113 412.99 111.79 414.4C111.348 416.52 111.548 418.723 112.364 420.728C113.148 423.01 114.492 425.25 115.542 427.728C116.548 430.006 116.981 432.496 116.802 434.98C116.634 437.011 116.083 438.992 115.178 440.818C114.269 442.489 113.17 444.049 111.902 445.466Z" fill="#FAFAFA"/>
<path d="M119.63 446.124C120.1 445.892 120.523 445.574 120.876 445.186C121.917 444.204 122.792 443.06 123.466 441.798C124.496 439.925 125.139 437.863 125.356 435.736C125.593 433.113 125.16 430.473 124.096 428.064C123.004 425.53 121.66 423.332 120.862 421.162C120.07 419.3 119.818 417.253 120.134 415.254C120.382 413.911 121.026 412.673 121.982 411.698C122.668 411.012 123.186 410.802 123.144 410.732C123.102 410.662 122.556 410.802 121.744 411.446C120.625 412.396 119.844 413.683 119.518 415.114C119.082 417.235 119.287 419.438 120.106 421.442C120.89 423.71 122.234 425.964 123.284 428.442C124.291 430.72 124.724 433.21 124.544 435.694C124.376 437.725 123.825 439.706 122.92 441.532C122.007 443.187 120.903 444.728 119.63 446.124Z" fill="#FAFAFA"/>
<path d="M94.584 445.648C94.836 445.648 95.032 437.64 95.032 427.784C95.032 417.928 94.836 409.934 94.584 409.934C94.332 409.934 94.15 417.928 94.15 427.784C94.15 437.64 94.346 445.648 94.584 445.648Z" fill="#FAFAFA"/>
<path d="M85.4981 458.794C85.4981 458.794 85.2181 458.92 84.9661 459.354C84.6273 460.004 84.5234 460.751 84.6721 461.468C84.7699 462.013 84.9927 462.528 85.3231 462.973C85.6534 463.417 86.0823 463.779 86.5761 464.03C87.2262 464.269 87.9318 464.314 88.607 464.159C89.2821 464.004 89.8976 463.657 90.3784 463.158C90.8593 462.659 91.1846 462.031 91.3149 461.351C91.4452 460.671 91.3747 459.967 91.1121 459.326C90.8427 458.842 90.4649 458.427 90.0082 458.114C89.5516 457.801 89.0285 457.597 88.4801 457.52C87.759 457.4 87.0184 457.528 86.3801 457.884C85.9461 458.15 85.8061 458.416 85.8341 458.444C86.6222 458.084 87.5024 457.977 88.3541 458.136C88.7841 458.23 89.1886 458.416 89.5392 458.682C89.8898 458.948 90.1781 459.287 90.3841 459.676C90.5586 460.166 90.5931 460.695 90.4837 461.204C90.3743 461.713 90.1254 462.181 89.7649 462.556C89.4044 462.931 88.9465 463.198 88.4426 463.328C87.9387 463.457 87.4087 463.443 86.9121 463.288C86.5163 463.098 86.1663 462.824 85.886 462.486C85.6057 462.147 85.4017 461.753 85.2881 461.328C85.0946 460.482 85.1679 459.597 85.4981 458.794Z" fill="#FAFAFA"/>
<path d="M143.276 460.67C143.276 460.432 132.314 460.236 118.79 460.236C105.266 460.236 94.3041 460.432 94.3041 460.67C94.3041 460.908 105.266 461.118 118.79 461.118C132.314 461.118 143.276 460.922 143.276 460.67Z" fill="#FAFAFA"/>
<path d="M649.236 66.1641H522.257V276.346H649.236V66.1641Z" fill="#E0E0E0"/>
<path d="M645.008 66.1641H518.029V276.346H645.008V66.1641Z" fill="#EBEBEB"/>
<path d="M639.591 70.42H523.433V272.076H639.591V70.42Z" fill="white"/>
<path d="M616.98 96.6281H545.552V245.882H616.98V96.6281Z" fill="#EBEBEB"/>
<path d="M545.552 193.06C545.384 179.06 557.928 165.508 571.732 163.562C578.312 162.638 585.312 163.94 591.458 161.42C602.434 156.912 605.934 142.324 616.98 137.998L617.484 245.882H545.552V193.06Z" fill="#E0E0E0"/>
<path d="M555.253 526.764C549.376 523.083 542.733 520.798 535.835 520.086C532.671 519.764 529.199 519.848 526.665 521.78C526.372 521.947 526.129 522.19 525.962 522.483C525.795 522.776 525.709 523.109 525.713 523.446C525.858 523.927 526.178 524.336 526.609 524.594C534.505 530.628 546.447 531.384 555.253 526.764Z" fill="#E0E0E0"/>
<path d="M554.749 526.218C550.254 522.924 546.061 519.236 542.219 515.2C538.36 511.135 535.645 506.121 534.351 500.668C534.099 499.86 534.025 499.008 534.134 498.169C534.242 497.331 534.532 496.526 534.981 495.81C544.963 503.608 552.817 513.702 554.749 526.232" fill="#E0E0E0"/>
<path d="M555.142 526.695C554.212 521.238 554.293 515.658 555.38 510.231C556.494 504.765 559.622 499.917 564.144 496.651C565.866 500.697 565.124 505.345 563.906 509.559C562.017 516.071 559.08 522.232 555.212 527.801" fill="#E0E0E0"/>
<path d="M564.942 544.236C558.992 544.964 553.812 548.1 549.374 552.118C544.911 556.183 541.803 561.519 540.47 567.406C546.308 567.042 551.25 562.926 554.834 558.32C558.418 553.714 560.91 548.646 564.858 544.32" fill="#E0E0E0"/>
<path d="M567.069 547.05C564.73 541.106 563.91 534.673 564.683 528.332C565.455 521.991 567.796 515.943 571.493 510.734C574.881 522.788 573.635 536.396 567.069 547.05Z" fill="#E0E0E0"/>
<path d="M580.006 562.464C574.561 562.112 569.133 563.372 564.402 566.089C559.67 568.806 555.845 572.858 553.406 577.738C553.084 578.396 552.79 579.236 553.238 579.824C553.468 580.042 553.747 580.203 554.051 580.293C554.355 580.383 554.676 580.4 554.988 580.342C560.224 579.992 564.858 576.856 568.68 573.342C572.502 569.828 575.848 565.614 580.062 562.52" fill="#E0E0E0"/>
<path d="M579.601 561.624C576.811 552.652 576.636 543.07 579.097 534.002C580.077 530.46 581.701 526.708 584.991 525.042C585.11 524.958 585.248 524.904 585.392 524.885C585.537 524.866 585.684 524.881 585.821 524.931C585.959 524.98 586.082 525.062 586.181 525.169C586.28 525.276 586.352 525.405 586.391 525.546C587.497 528.034 587.977 530.754 587.791 533.47C587.592 536.173 587.175 538.856 586.545 541.492C585.509 546.392 584.963 551.656 582.275 555.884C581.637 556.9 581.067 557.957 580.567 559.048C580.049 560.126 580.049 560.448 579.587 561.358" fill="#E0E0E0"/>
<path d="M613.845 566.72C611.311 557.074 614.013 545.37 620.089 537.446C620.537 536.872 621.139 536.242 621.867 536.312C622.987 536.41 623.267 537.908 623.267 539.028C622.813 548.958 619.561 558.558 613.887 566.72" fill="#E0E0E0"/>
<path d="M616.938 568.834C622.938 570.253 629.175 570.354 635.218 569.128C641.26 567.903 646.965 565.381 651.938 561.736C646.095 558.787 639.408 557.966 633.024 559.412C626.696 560.812 620.928 563.682 616.994 568.834" fill="#E0E0E0"/>
<path d="M619.542 562.407C626.108 551.697 638.708 544.711 651.252 544.067C649.852 549.177 645.652 553.139 640.878 555.533C636.036 557.718 630.915 559.22 625.66 559.999C623.63 560.391 620.858 560.825 619.542 562.421" fill="#E0E0E0"/>
<path d="M614.503 531.216C616.493 525.18 617.854 518.954 618.563 512.638C619.257 506.28 617.966 499.864 614.867 494.27C608.721 506.142 608.105 520.016 614.321 531.846" fill="#E0E0E0"/>
<path d="M635.166 520.801C642.334 507.767 656.978 497.351 671.79 495.881C666.078 510.119 650.496 521.081 635.166 520.801Z" fill="#E0E0E0"/>
<path d="M630.643 523.335C641.353 524.959 650.467 531.735 660.463 535.935C662.561 536.949 664.887 537.398 667.211 537.237C668.291 537.223 669.34 536.878 670.218 536.249C671.095 535.62 671.759 534.737 672.119 533.72C672.479 532.702 672.519 531.598 672.232 530.557C671.945 529.516 671.346 528.588 670.515 527.899C669.1 526.588 667.433 525.578 665.615 524.931C654.723 520.395 643.047 520.283 631.567 523.027" fill="#E0E0E0"/>
<path d="M624.4 530.837C626.822 531.523 627.648 532.783 629.566 534.421C636.127 539.977 643.885 543.939 652.232 545.999C653.1 546.223 654.234 546.307 654.668 545.523C655.102 544.739 654.556 544.011 654.08 543.409C650.443 539.152 645.729 535.951 640.43 534.141C635.208 532.195 630.63 529.857 624.456 530.361" fill="#E0E0E0"/>
<path d="M617.47 485.507C621.854 489.559 627.037 492.649 632.686 494.578C638.335 496.507 644.326 497.232 650.273 496.707C650.819 496.713 651.35 496.525 651.771 496.175C652.597 495.279 651.603 493.893 650.637 493.137C640.99 485.619 629.314 482.497 617.47 485.549" fill="#E0E0E0"/>
<path d="M625.801 482.468C631.607 478.192 638.343 475.351 645.458 474.178C652.573 473.006 659.865 473.534 666.736 475.72C661.381 480.688 654.504 483.702 647.221 484.274C640.03 484.935 632.779 484.324 625.801 482.468Z" fill="#E0E0E0"/>
<path d="M622.453 461.635C621.515 452.017 622.131 444.415 621.459 434.741C621.459 433.971 621.235 433.033 620.521 432.753C619.513 432.375 618.673 433.607 618.337 434.629C616.932 439.113 616.571 443.859 617.282 448.503C617.993 453.147 619.757 457.568 622.439 461.425" fill="#E0E0E0"/>
<path d="M621.768 462.7C628.059 458.643 633.48 453.375 637.714 447.202C640.864 442.89 643.524 437.724 642.81 432.446C640.591 432.499 638.411 433.038 636.422 434.025C634.434 435.012 632.686 436.423 631.302 438.158C628.549 441.637 626.552 445.652 625.436 449.946C624.162 454.146 623.266 458.542 621.768 462.7Z" fill="#E0E0E0"/>
<path d="M637.433 458.346C651.773 453.026 665.048 445.189 676.633 435.204C671.943 433.314 666.567 434.448 661.891 436.338C651.25 440.371 642.458 448.166 637.181 458.248" fill="#E0E0E0"/>
<path d="M626.177 467.978C633.415 468.762 640.78 469.28 647.962 468.076C655.144 466.872 661.71 464.101 668.318 461.315C668.903 461.16 669.406 460.784 669.718 460.265C669.822 459.96 669.832 459.63 669.744 459.32C669.657 459.01 669.476 458.733 669.228 458.528C668.719 458.128 668.125 457.85 667.492 457.716C660.31 455.7 652.568 456.652 645.498 459.032C638.771 461.33 632.305 464.328 626.206 467.978" fill="#E0E0E0"/>
<path d="M584.794 485.8C579.852 475.832 580.174 464.184 584.444 453.894C587.454 458.472 587.818 464.31 587.244 469.756C586.67 475.202 585.032 480.83 584.92 486.304" fill="#E0E0E0"/>
<path d="M565.054 475.874C558.865 475.8 552.729 477.018 547.037 479.45C541.346 481.883 536.224 485.476 532 490C538.236 490.752 544.552 489.58 550.102 486.64C555.61 483.701 560.803 480.206 565.6 476.21" fill="#E0E0E0"/>
<path d="M551.783 471.436C545.735 470.946 539.925 470.19 534.129 471.968C531.199 472.793 528.481 474.239 526.159 476.208C523.838 478.177 521.967 480.622 520.675 483.378C526.376 483.828 532.093 482.73 537.223 480.2C542.331 477.702 547.203 474.751 551.783 471.38" fill="#E0E0E0"/>
<path d="M571.437 471.632C566.005 468.076 560.419 464.45 554.105 462.98C547.791 461.51 540.441 462.588 536.031 467.362C541.155 470.358 547.371 470.722 553.307 470.708C559.243 470.694 566.509 470.638 572.109 472.626" fill="#E0E0E0"/>
<path d="M571.466 471.926C562.184 462.798 558.656 446.418 562.394 433.958C569.724 445.182 572.931 458.601 571.466 471.926Z" fill="#E0E0E0"/>
<path d="M597.003 446.082C598.753 442.022 599.985 437.682 601.553 433.594C602.986 429.388 605.189 425.486 608.049 422.086C610.951 418.669 615.078 416.527 619.543 416.122C618.115 422.404 615.392 428.319 611.55 433.489C607.708 438.66 602.829 442.973 597.227 446.152" fill="#E0E0E0"/>
<path d="M592.383 451.471C589.485 447.481 586.139 442.063 582.205 439.081C578.271 436.099 573.161 434.307 568.401 435.399C570.882 439.755 574.346 443.471 578.517 446.251C582.688 449.032 587.45 450.8 592.425 451.415" fill="#E0E0E0"/>
<path d="M593.306 446.418C591.217 441.663 589.681 436.684 588.728 431.578C587.773 426.436 588.587 421.121 591.038 416.5C596.148 426.132 597.786 436.478 593.558 446.53" fill="#E0E0E0"/>
<path d="M597.045 416.5C599.929 406.952 608.679 399.91 618.129 396.69C619.297 396.207 620.566 396.015 621.825 396.13C622.45 396.204 623.041 396.46 623.523 396.865C624.006 397.271 624.36 397.808 624.541 398.412C624.891 400.036 623.547 401.492 622.287 402.612C614.913 408.909 606.341 413.647 597.087 416.542" fill="#E0E0E0"/>
<path d="M597.156 408.688C597.52 402.528 597.898 396.284 599.956 390.488C602.014 384.692 605.822 379.176 611.436 376.628C612.402 382.844 609.658 389.032 606.34 394.38C603.022 399.728 599.046 404.796 597.058 410.76" fill="#E0E0E0"/>
<path d="M597.002 413C594.608 406 594.37 397.194 590.198 391.132C587.286 386.932 582.624 384.006 580.104 379.512C578.595 383.819 578.805 388.543 580.692 392.7C582.596 396.805 585.207 400.544 588.406 403.746C591.486 407.036 594.132 409.514 597.002 413Z" fill="#E0E0E0"/>
<path d="M597.043 617.932C596.861 617.932 596.693 571.494 596.679 514.22C596.665 456.946 596.819 410.494 597.001 410.494C597.183 410.494 597.351 456.932 597.351 514.22C597.351 571.508 597.225 617.932 597.043 617.932Z" fill="#E0E0E0"/>
<path d="M637.629 478.8C637.068 479.073 636.482 479.293 635.879 479.458L631.077 481.068C627.017 482.468 621.459 484.456 615.411 486.934C609.363 489.412 603.791 491.582 600.585 494.354C599.302 495.424 598.282 496.775 597.603 498.302C597.141 499.394 597.057 500.066 597.001 500.052C596.945 500.038 597.001 499.884 597.001 499.562C597.074 499.085 597.191 498.617 597.351 498.162C597.962 496.548 598.957 495.106 600.249 493.962C602.189 492.323 604.359 490.979 606.689 489.972C609.265 488.768 612.121 487.508 615.089 486.262C621.151 483.784 626.765 481.852 630.853 480.578C632.911 479.948 634.577 479.472 635.739 479.178C636.355 478.99 636.988 478.864 637.629 478.8Z" fill="#E0E0E0"/>
<path d="M651 446.152C650.858 446.344 650.693 446.518 650.51 446.67L649.026 448.07L643.426 453.124L624.918 469.616C617.68 476.042 611.436 482.216 607.11 486.822C604.94 489.132 603.232 491.022 602.07 492.422L600.67 493.962C600.523 494.154 600.354 494.328 600.166 494.48C600.28 494.266 600.416 494.064 600.572 493.878C600.852 493.5 601.258 492.954 601.818 492.254C602.924 490.854 604.618 488.908 606.704 486.542C612.294 480.426 618.2 474.608 624.4 469.112C631.652 462.7 638.246 456.932 643.048 452.774L648.746 447.874L650.328 446.572C650.533 446.404 650.759 446.263 651 446.152Z" fill="#E0E0E0"/>
<path d="M617.064 476.154C616.882 476.07 618.394 472.584 619.864 468.174C621.334 463.764 622.104 460.04 622.286 460.082C622.133 462.93 621.533 465.737 620.508 468.398C619.857 470.304 619.105 472.173 618.254 473.998C617.968 474.773 617.567 475.499 617.064 476.154Z" fill="#E0E0E0"/>
<path d="M597.087 504.266C596.67 503.876 596.299 503.439 595.981 502.964C595.225 501.998 594.259 500.78 593.181 499.31C590.787 496.216 587.469 491.932 583.759 487.256C580.049 482.58 576.619 478.38 574.155 475.342L571.201 471.8C570.813 471.373 570.475 470.904 570.193 470.4C570.634 470.76 571.037 471.163 571.397 471.604C572.139 472.416 573.189 473.592 574.477 475.076C577.039 478.044 580.511 482.202 584.277 486.878C588.043 491.554 591.277 495.894 593.559 499.072C594.707 500.654 595.631 501.956 596.247 502.852C596.577 503.292 596.858 503.766 597.087 504.266Z" fill="#E0E0E0"/>
<path d="M588.197 492.799C586.395 490.808 585.112 488.404 584.459 485.799C583.767 483.534 583.483 481.164 583.619 478.799H583.913C583.787 479.331 583.689 479.611 583.633 479.611C583.577 479.611 583.633 479.303 583.633 478.743H583.927C584.083 481.061 584.481 483.355 585.117 485.589C585.954 488.069 586.984 490.48 588.197 492.799Z" fill="#E0E0E0"/>
<path d="M576.702 478.394C575.902 477.78 575.027 477.272 574.098 476.882C571.757 476.183 569.295 475.988 566.874 476.308C564.418 476.493 561.982 476.887 559.594 477.484C558.613 477.793 557.612 478.032 556.598 478.198C557.489 477.664 558.457 477.268 559.468 477.022C561.857 476.279 564.322 475.809 566.818 475.622C569.333 475.287 571.892 475.56 574.28 476.42C575.29 476.78 576.145 477.477 576.702 478.394Z" fill="#E0E0E0"/>
<path d="M573.999 474.894C573.999 474.992 572.473 474.278 570.009 473.494C563.546 471.29 556.629 470.761 549.905 471.954C547.343 472.416 545.789 472.906 545.705 472.794C546.034 472.589 546.393 472.437 546.769 472.347C547.752 471.995 548.758 471.709 549.779 471.493C556.566 470.011 563.638 470.551 570.121 473.047C571.078 473.424 572.012 473.854 572.921 474.335C573.308 474.464 573.671 474.653 573.999 474.894Z" fill="#E0E0E0"/>
<path d="M597.002 460.082C595.817 456.778 594.844 453.402 594.09 449.974C593.119 446.605 592.366 443.177 591.836 439.712C593.021 443.011 593.993 446.382 594.748 449.806C595.714 453.18 596.467 456.613 597.002 460.082Z" fill="#E0E0E0"/>
<path d="M597.184 460.081C596.257 457.991 595.181 455.969 593.964 454.033C592.602 452.201 591.006 450.553 589.218 449.133C589.894 449.305 590.522 449.631 591.052 450.085C592.397 451.067 593.566 452.269 594.51 453.641C595.955 455.514 596.878 457.736 597.184 460.081Z" fill="#E0E0E0"/>
<path d="M597.045 593.18C597.045 593.18 596.835 592.06 596.317 590.086C595.547 587.312 594.505 584.62 593.209 582.05C590.003 575.484 584.165 567.182 576.745 558.852C573.077 554.652 569.507 550.69 566.483 546.896C563.761 543.559 561.304 540.016 559.133 536.298C557.677 533.789 556.436 531.162 555.423 528.444C555.087 527.478 554.835 526.722 554.695 526.19C554.601 525.932 554.54 525.664 554.513 525.392C554.513 525.392 554.905 526.456 555.675 528.346C556.764 531.012 558.056 533.591 559.539 536.06C561.759 539.714 564.239 543.204 566.959 546.504C569.997 550.256 573.567 554.204 577.249 558.404C584.697 566.804 590.521 575.204 593.643 581.84C594.909 584.457 595.89 587.203 596.569 590.03C596.748 590.796 596.884 591.572 596.975 592.354C597.033 592.625 597.056 592.903 597.045 593.18Z" fill="#E0E0E0"/>
<path d="M633.711 551.754C633.1 552.162 632.459 552.522 631.793 552.832C630.056 553.815 628.391 554.919 626.809 556.136C624.476 557.949 622.29 559.943 620.271 562.1C617.961 564.522 615.595 567.35 613.187 570.374C608.357 576.422 603.835 581.784 601.133 586.068C599.733 588.196 598.753 589.988 598.109 591.234C597.802 591.907 597.446 592.558 597.045 593.18C597.081 592.99 597.142 592.807 597.227 592.634C597.367 592.284 597.563 591.766 597.871 591.122C598.698 589.299 599.633 587.527 600.671 585.816C604.343 580.307 608.325 575.011 612.599 569.954C615.021 566.916 617.415 564.102 619.767 561.666C621.833 559.509 624.077 557.528 626.473 555.744C628.093 554.547 629.817 553.497 631.625 552.608C632.255 552.286 632.773 552.09 633.123 551.936C633.31 551.85 633.508 551.789 633.711 551.754Z" fill="#E0E0E0"/>
<path d="M634.438 565.194C633.1 565.484 631.743 565.681 630.378 565.782C627.111 566.117 623.882 566.755 620.732 567.686C617.622 568.695 614.706 570.224 612.108 572.208C610.12 573.748 609.182 575.008 609.098 574.938C609.014 574.868 609.252 574.574 609.7 574C610.332 573.214 611.04 572.491 611.814 571.844C614.383 569.693 617.345 568.063 620.536 567.042C623.725 566.089 627.013 565.507 630.336 565.306C631.697 565.144 633.07 565.107 634.438 565.194Z" fill="#E0E0E0"/>
<path d="M610.274 573.467C610.064 573.341 611.898 570.541 613.312 566.789C614.726 563.037 614.964 559.663 615.202 559.705C615.302 560.427 615.279 561.161 615.132 561.875C614.936 563.627 614.541 565.351 613.956 567.013C613.334 568.66 612.541 570.236 611.59 571.717C611.256 572.373 610.811 572.965 610.274 573.467Z" fill="#E0E0E0"/>
<path d="M645.597 515.676C645.391 515.816 645.17 515.934 644.939 516.026L643.035 516.894C642.195 517.258 641.187 517.706 640.039 518.294C638.891 518.882 637.547 519.498 636.161 520.338L633.949 521.598C633.179 522.032 632.409 522.564 631.611 523.068C629.973 524.062 628.335 525.28 626.585 526.526C619.105 532.1 612.58 538.852 607.265 546.518C606.075 548.31 604.913 549.99 603.975 551.656C603.499 552.482 603.009 553.252 602.575 554.036L601.385 556.304C600.601 557.704 599.985 559.104 599.481 560.252C598.977 561.4 598.501 562.436 598.179 563.29C597.857 564.144 597.577 564.69 597.367 565.222C597.157 565.754 597.073 565.894 597.045 565.88C597.095 565.642 597.16 565.408 597.241 565.18L597.927 563.192C598.221 562.324 598.613 561.274 599.145 560.098C599.677 558.922 600.195 557.536 600.965 556.08L602.113 553.798C602.519 553 603.009 552.216 603.513 551.376C604.437 549.682 605.585 547.988 606.775 546.168C612.076 538.404 618.656 531.597 626.235 526.036C627.999 524.79 629.665 523.572 631.317 522.592C632.143 522.102 632.913 521.584 633.697 521.192L635.951 519.96C637.351 519.148 638.751 518.56 639.899 518C641.047 517.44 642.097 517.006 642.951 516.684L644.911 515.928C645.13 515.819 645.36 515.735 645.597 515.676Z" fill="#E0E0E0"/>
<path d="M616.574 535.122C616.849 534.188 617.407 533.361 618.17 532.756C619.953 531.198 622.229 530.321 624.596 530.278C626.921 530.29 629.22 530.766 631.358 531.678C632.27 531.963 633.133 532.383 633.92 532.924C632.995 532.734 632.086 532.467 631.204 532.126C629.086 531.4 626.863 531.026 624.624 531.02C622.399 531.068 620.246 531.824 618.478 533.176C617.798 533.779 617.162 534.429 616.574 535.122Z" fill="#E0E0E0"/>
<path d="M612.235 539.602C614.169 535.863 614.667 531.545 613.635 527.464C614.017 527.972 614.275 528.561 614.391 529.186C614.787 530.668 614.897 532.213 614.713 533.736C614.523 535.262 614.048 536.739 613.313 538.09C612.795 539.112 612.305 539.644 612.235 539.602Z" fill="#E0E0E0"/>
<path d="M564.97 599.831C565.978 617.583 571.326 635.629 579.544 653.871H615.314C623.168 635.811 628.138 617.779 629.02 599.831H564.97Z" fill="#E0E0E0"/>
<path d="M623.224 628.601C623.224 628.783 611.45 628.936 596.932 628.936C582.414 628.936 570.626 628.783 570.626 628.601C570.626 628.419 582.4 628.265 596.932 628.265C611.464 628.265 623.224 628.363 623.224 628.601Z" fill="#FAFAFA"/>
<path d="M622.427 634.97C622.427 635.166 611.395 635.306 597.773 635.306C584.151 635.306 573.119 635.166 573.119 634.97C573.119 634.774 584.151 634.634 597.773 634.634C611.395 634.634 622.427 634.788 622.427 634.97Z" fill="#FAFAFA"/>
<path d="M580.117 611.478C580.565 616.962 580.565 622.473 580.117 627.956C579.669 622.473 579.669 616.962 580.117 611.478Z" fill="#FAFAFA"/>
<path d="M599.285 611.478C599.733 617.158 599.733 622.864 599.285 628.544C598.836 622.864 598.836 617.158 599.285 611.478Z" fill="#FAFAFA"/>
<path d="M617.287 611.337C617.735 617.129 617.735 622.947 617.287 628.739C616.839 622.947 616.839 617.129 617.287 611.337Z" fill="#FAFAFA"/>
<path d="M627.886 611.478C627.886 611.66 614.082 611.814 597.086 611.814C580.09 611.814 566.286 611.66 566.286 611.478C566.286 611.296 580.09 611.142 597.086 611.142C614.082 611.142 627.886 611.296 627.886 611.478Z" fill="#FAFAFA"/>
<path d="M249.508 108.808V250.53H45.962L38.626 109.802L249.508 108.808Z" fill="#E0E0E0"/>
<path d="M38.64 109.788L38.64 250.222H242.186V109.788H38.64Z" fill="white"/>
<path d="M243.152 251.202H37.66V108.836H243.152V251.202ZM39.592 249.27H241.192V110.768H39.592V249.27Z" fill="#E0E0E0"/>
<path d="M220.136 127.246H60.676V232.778H220.136V127.246Z" fill="white"/>
<path d="M220.136 127.246C220.136 127.246 219.856 127.246 219.352 127.246H217.084H208.32L175.462 127.372L60.662 127.596L61.124 127.134C61.124 159.334 61.124 195.104 61.124 232.666L60.62 232.162L220.08 232.26L219.674 232.666C219.772 200.55 219.842 174.216 219.884 155.876C219.884 146.706 219.968 139.552 219.996 134.638C219.996 132.216 219.996 130.354 219.996 129.038C219.996 127.722 219.996 127.092 219.996 127.092C219.996 127.092 219.996 127.708 219.996 128.954C219.996 130.2 219.996 132.062 219.996 134.456C219.996 139.342 219.996 146.468 220.108 155.596C220.108 173.992 220.22 200.396 220.318 232.596V232.988H219.912L60.452 233.1H60.2V232.596C60.2 195.034 60.2 159.306 60.2 127.064V126.602H60.662L175.756 126.826L208.502 126.952H217.168H219.394L220.136 127.246Z" fill="#E0E0E0"/>
<path d="M38.626 109.41C39.8848 110.013 41.0611 110.775 42.126 111.678C44.212 113.176 47.054 115.304 50.106 117.754C53.158 120.204 55.86 122.528 57.764 124.264C58.8524 125.136 59.8303 126.137 60.676 127.246C60.494 127.456 55.594 123.424 49.476 118.552C43.358 113.68 38.458 109.634 38.626 109.41Z" fill="#E0E0E0"/>
<path d="M242.2 109.802C242.368 110.026 237.566 114.1 231.49 118.916C225.414 123.732 220.29 127.47 220.15 127.316C220.01 127.162 224.77 123.018 230.86 118.202C236.95 113.386 242.004 109.578 242.2 109.802Z" fill="#E0E0E0"/>
<path d="M242.018 250.25L219.324 231.854L242.018 250.25Z" fill="white"/>
<path d="M219.324 231.854C219.506 231.644 224.728 235.592 230.986 240.66C237.244 245.728 242.186 250.04 242.018 250.25C241.85 250.46 236.628 246.526 230.356 241.444C224.084 236.362 219.156 232.078 219.324 231.854Z" fill="#E0E0E0"/>
<path d="M38.626 250.236C38.458 250.012 43.204 246.036 49.224 241.206C55.244 236.376 60.284 232.806 60.424 232.974C60.564 233.142 55.846 237.174 49.826 242.004C43.806 246.834 38.808 250.446 38.626 250.236Z" fill="#E0E0E0"/>
<path d="M93.058 160.132V195.468H193.396V160.132H93.058Z" fill="#E0E0E0"/>
<path d="M647.038 653.423C647.038 653.619 512.162 653.787 345.814 653.787C179.466 653.787 44.562 653.619 44.562 653.423C44.562 653.227 179.41 653.059 345.814 653.059C512.218 653.059 647.038 653.227 647.038 653.423Z" fill="#263238"/>
<path d="M118.566 626.289C118.566 626.289 114.996 645.399 146.44 646.799C177.884 648.199 242.62 649.753 242.62 649.753L238.56 608.691L137.76 601.691L121.66 613.535L118.566 626.289Z" fill="#E0E0E0"/>
<path d="M459.284 63.266H159.18C146.809 63.266 136.78 73.2948 136.78 85.666V631.302C136.78 643.673 146.809 653.702 159.18 653.702H459.284C471.655 653.702 481.684 643.673 481.684 631.302V85.666C481.684 73.2948 471.655 63.266 459.284 63.266Z" fill="#263238"/>
<path d="M155.778 90.342H462.672V631.274H163.072C161.138 631.274 159.282 630.506 157.914 629.138C156.546 627.77 155.778 625.915 155.778 623.98V90.342Z" fill="white"/>
<path d="M339.374 77.448H273.742C272.702 77.448 271.705 77.035 270.97 76.2999C270.235 75.5647 269.822 74.5677 269.822 73.528C269.822 72.4884 270.235 71.4913 270.97 70.7562C271.705 70.021 272.702 69.608 273.742 69.608H339.374C340.414 69.608 341.411 70.021 342.146 70.7562C342.881 71.4913 343.294 72.4884 343.294 73.528C343.294 74.5677 342.881 75.5647 342.146 76.2999C341.411 77.035 340.414 77.448 339.374 77.448Z" fill="#455A64"/>
<path d="M197.624 148.134V151.984H197.316C197.116 151.081 196.624 150.269 195.916 149.674C195.293 149.152 194.503 148.869 193.69 148.876C193.01 148.87 192.345 149.076 191.786 149.464C191.215 149.849 190.772 150.395 190.512 151.032C190.149 151.92 189.973 152.873 189.994 153.832C189.983 154.751 190.11 155.667 190.372 156.548C190.562 157.275 190.973 157.926 191.548 158.41C192.151 158.852 192.887 159.074 193.634 159.04C194.302 159.048 194.961 158.89 195.552 158.578C196.259 158.168 196.885 157.631 197.4 156.996V157.948C196.854 158.543 196.192 159.02 195.454 159.348C194.704 159.657 193.899 159.81 193.088 159.796C191.991 159.817 190.906 159.572 189.924 159.082C189.02 158.625 188.274 157.909 187.782 157.024C187.301 156.169 187.046 155.205 187.04 154.224C187.042 153.161 187.327 152.117 187.866 151.2C188.402 150.271 189.181 149.507 190.12 148.988C191.04 148.473 192.076 148.203 193.13 148.204C193.98 148.22 194.819 148.391 195.608 148.708C195.911 148.848 196.231 148.946 196.56 149.002C196.645 149.004 196.73 148.989 196.809 148.957C196.889 148.926 196.961 148.879 197.022 148.82C197.166 148.645 197.254 148.43 197.274 148.204L197.624 148.134Z" fill="#263238"/>
<path d="M202.244 148.4V152.838C202.577 152.463 202.969 152.146 203.406 151.9C203.742 151.72 204.117 151.624 204.498 151.62C204.946 151.609 205.383 151.758 205.73 152.04C206.054 152.282 206.294 152.62 206.416 153.006C206.554 153.617 206.61 154.243 206.584 154.868V157.864C206.55 158.235 206.602 158.609 206.738 158.956C206.919 159.13 207.159 159.23 207.41 159.236V159.53H203.518V159.236C203.638 159.224 203.754 159.189 203.86 159.131C203.966 159.073 204.059 158.995 204.134 158.9C204.268 158.572 204.321 158.217 204.288 157.864V154.42C204.308 154.021 204.28 153.622 204.204 153.23C204.164 153.08 204.076 152.947 203.952 152.852C203.841 152.762 203.703 152.713 203.56 152.712C203.325 152.719 203.099 152.803 202.916 152.95C202.642 153.164 202.414 153.431 202.244 153.734V157.85C202.213 158.196 202.256 158.544 202.37 158.872C202.445 158.975 202.541 159.059 202.652 159.12C202.764 159.18 202.887 159.215 203.014 159.222V159.516H199.122V159.222C199.252 159.217 199.38 159.186 199.498 159.131C199.616 159.076 199.721 158.997 199.808 158.9C199.941 158.567 199.989 158.206 199.948 157.85V150.052C199.983 149.686 199.93 149.316 199.794 148.974C199.613 148.8 199.373 148.7 199.122 148.694V148.4H202.244Z" fill="#263238"/>
<path d="M212.688 158.382C212.022 159.08 211.128 159.517 210.168 159.614C209.967 159.62 209.767 159.585 209.58 159.511C209.394 159.437 209.224 159.326 209.081 159.185C208.938 159.043 208.826 158.874 208.75 158.688C208.675 158.502 208.638 158.303 208.642 158.102C208.648 157.802 208.719 157.506 208.85 157.236C208.98 156.965 209.167 156.726 209.398 156.534C210.405 155.763 211.512 155.132 212.688 154.658V153.888C212.713 153.521 212.68 153.152 212.59 152.796C212.518 152.631 212.395 152.494 212.24 152.404C212.064 152.294 211.86 152.235 211.652 152.236C211.34 152.223 211.033 152.306 210.77 152.474C210.708 152.51 210.656 152.56 210.619 152.622C210.583 152.683 210.562 152.752 210.56 152.824C210.582 152.986 210.661 153.135 210.784 153.244C210.969 153.426 211.079 153.671 211.092 153.93C211.092 154.058 211.067 154.185 211.016 154.303C210.965 154.421 210.891 154.528 210.798 154.616C210.582 154.806 210.301 154.907 210.014 154.896C209.694 154.901 209.385 154.786 209.146 154.574C209.038 154.486 208.95 154.375 208.89 154.249C208.829 154.123 208.797 153.985 208.796 153.846C208.81 153.426 208.98 153.027 209.272 152.726C209.623 152.338 210.073 152.053 210.574 151.9C211.132 151.704 211.719 151.604 212.31 151.606C212.923 151.574 213.53 151.736 214.046 152.068C214.41 152.316 214.693 152.667 214.858 153.076C214.97 153.595 215.012 154.127 214.984 154.658V157.64C214.959 157.859 214.959 158.079 214.984 158.298C215.001 158.377 215.04 158.45 215.096 158.508C215.16 158.528 215.228 158.528 215.292 158.508C215.432 158.508 215.572 158.41 215.726 158.214L215.964 158.41C215.752 158.762 215.465 159.063 215.124 159.292C214.824 159.472 214.48 159.564 214.13 159.558C213.759 159.582 213.391 159.473 213.094 159.25C212.861 159.017 212.717 158.71 212.688 158.382ZM212.688 157.78V155.218C212.141 155.533 211.664 155.957 211.288 156.464C211.079 156.716 210.965 157.033 210.966 157.36C210.965 157.482 210.988 157.603 211.033 157.715C211.079 157.828 211.146 157.931 211.232 158.018C211.306 158.094 211.396 158.154 211.495 158.192C211.594 158.231 211.7 158.248 211.806 158.242C212.142 158.188 212.452 158.026 212.688 157.78Z" fill="#263238"/>
<path d="M219.8 158.732V161.532C219.78 161.802 219.813 162.073 219.898 162.33C219.951 162.467 220.05 162.58 220.178 162.652C220.432 162.73 220.697 162.763 220.962 162.75V163.044H216.58V162.75C216.719 162.754 216.858 162.731 216.988 162.68C217.118 162.63 217.236 162.553 217.336 162.456C217.487 162.153 217.546 161.812 217.504 161.476V153.44C217.543 153.083 217.475 152.722 217.308 152.404C217.21 152.314 217.096 152.244 216.971 152.198C216.846 152.153 216.713 152.132 216.58 152.138V151.844H219.8V152.852C220.011 152.511 220.293 152.22 220.626 151.998C221.012 151.743 221.465 151.606 221.928 151.606C222.486 151.607 223.028 151.794 223.468 152.138C223.949 152.526 224.312 153.04 224.518 153.622C224.762 154.266 224.886 154.949 224.882 155.638C224.892 156.365 224.763 157.087 224.504 157.766C224.283 158.324 223.909 158.809 223.426 159.166C223.025 159.456 222.551 159.631 222.058 159.67C221.564 159.71 221.069 159.613 220.626 159.39C220.313 159.222 220.034 158.999 219.8 158.732ZM219.8 157.906C219.953 158.182 220.17 158.416 220.434 158.589C220.697 158.763 220.998 158.869 221.312 158.9C221.464 158.894 221.611 158.849 221.739 158.768C221.867 158.686 221.971 158.573 222.04 158.438C222.623 156.703 222.623 154.825 222.04 153.09C221.955 152.943 221.833 152.821 221.685 152.738C221.537 152.654 221.37 152.611 221.2 152.614C220.654 152.614 220.192 153.006 219.8 153.804V157.906Z" fill="#263238"/>
<path d="M229.25 149.03V151.83H231.07V152.6H229.25V157.332C229.216 157.616 229.216 157.902 229.25 158.186C229.286 158.308 229.36 158.416 229.46 158.494C229.542 158.566 229.645 158.61 229.754 158.62C230.104 158.62 230.44 158.354 230.762 157.808L231.014 157.99C230.87 158.448 230.583 158.847 230.195 159.13C229.806 159.412 229.338 159.562 228.858 159.558C228.407 159.577 227.965 159.433 227.612 159.152C227.31 158.927 227.086 158.614 226.968 158.256C226.922 157.753 226.922 157.247 226.968 156.744V152.544H225.96V152.25C226.602 151.808 227.194 151.296 227.724 150.724C228.21 150.171 228.633 149.565 228.984 148.918L229.25 149.03Z" fill="#263238"/>
<path d="M238.294 155.4H234.094C234.095 156.27 234.38 157.115 234.906 157.808C235.069 158.024 235.281 158.199 235.524 158.318C235.767 158.438 236.035 158.498 236.306 158.494C236.622 158.493 236.93 158.396 237.188 158.214C237.541 157.949 237.836 157.616 238.056 157.234L238.336 157.416C238.023 158.119 237.543 158.735 236.936 159.208C236.427 159.562 235.82 159.748 235.2 159.74C234.691 159.768 234.183 159.661 233.728 159.43C233.273 159.199 232.888 158.852 232.61 158.424C232.117 157.642 231.873 156.729 231.91 155.806C231.846 154.693 232.218 153.598 232.946 152.754C233.242 152.394 233.614 152.105 234.035 151.907C234.456 151.708 234.916 151.605 235.382 151.606C235.768 151.609 236.149 151.697 236.498 151.864C236.846 152.031 237.154 152.273 237.398 152.572C238.021 153.38 238.338 154.381 238.294 155.4ZM236.278 154.854C236.302 154.243 236.25 153.632 236.124 153.034C236.061 152.747 235.909 152.488 235.69 152.292C235.558 152.189 235.395 152.135 235.228 152.138C235.084 152.138 234.943 152.178 234.82 152.252C234.697 152.326 234.596 152.431 234.528 152.558C234.174 153.164 234.003 153.859 234.038 154.56V154.854H236.278Z" fill="#263238"/>
<path d="M242.438 151.844V153.58C242.8 152.969 243.275 152.432 243.838 151.998C244.161 151.764 244.545 151.628 244.944 151.606C245.081 151.599 245.219 151.622 245.347 151.673C245.475 151.724 245.59 151.801 245.686 151.9C245.781 152.008 245.854 152.135 245.9 152.272C245.946 152.409 245.963 152.554 245.952 152.698C245.972 153.006 245.877 153.31 245.686 153.552C245.607 153.646 245.508 153.721 245.397 153.772C245.286 153.822 245.164 153.848 245.042 153.846C244.764 153.851 244.494 153.751 244.286 153.566L243.922 153.258C243.857 153.244 243.79 153.244 243.726 153.258C243.559 153.26 243.399 153.325 243.278 153.44C243.039 153.648 242.864 153.92 242.774 154.224C242.588 154.793 242.498 155.389 242.508 155.988V158.2C242.482 158.395 242.482 158.593 242.508 158.788C242.562 158.928 242.667 159.043 242.802 159.11C243.011 159.196 243.234 159.244 243.46 159.25V159.544H239.26V159.25C239.385 159.253 239.51 159.23 239.626 159.181C239.741 159.133 239.846 159.061 239.932 158.97C240.098 158.582 240.161 158.158 240.114 157.738V153.538C240.15 153.259 240.15 152.977 240.114 152.698C240.075 152.562 239.991 152.443 239.876 152.362C239.708 152.268 239.521 152.216 239.33 152.208V151.914L242.438 151.844Z" fill="#263238"/>
<path d="M255.514 148.162V157.262C255.495 157.698 255.523 158.134 255.598 158.564C255.664 158.758 255.799 158.922 255.976 159.026C256.262 159.169 256.581 159.232 256.9 159.208H257.152V159.516H251.3V159.208H251.594C251.939 159.233 252.284 159.175 252.602 159.04C252.795 158.951 252.946 158.791 253.022 158.592C253.119 158.132 253.152 157.661 253.12 157.192V151.424C253.135 151.1 253.112 150.776 253.05 150.458C252.99 150.322 252.893 150.205 252.77 150.122C252.632 150.035 252.471 149.991 252.308 149.996C251.959 150.013 251.616 150.098 251.3 150.248L251.146 149.954L255.234 148.092L255.514 148.162Z" fill="#263238"/>
<path d="M212.226 220.136V229.138H211.4C211.076 227.556 210.484 226.041 209.65 224.658C208.978 223.722 208.077 222.974 207.032 222.488C205.985 222.125 204.876 221.973 203.77 222.04H201.292V247.702C201.225 248.769 201.32 249.841 201.572 250.88C201.814 251.36 202.201 251.752 202.678 252C203.37 252.354 204.143 252.518 204.918 252.476H206.024V253.4H188.552V252.49H189.658C190.468 252.526 191.273 252.353 191.996 251.986C192.448 251.714 192.797 251.301 192.99 250.81C193.245 249.8 193.34 248.756 193.27 247.716V222.04H190.862C189.116 221.878 187.372 222.378 185.976 223.44C184.477 224.952 183.531 226.925 183.288 229.04H182.35V220.038L212.226 220.136Z" fill="#263238"/>
<path d="M427.14 183.176C427.14 183.386 414.54 183.54 399.028 183.54C383.516 183.54 370.916 183.386 370.916 183.176C370.916 182.966 383.516 182.812 399.028 182.812C414.54 182.812 427.14 182.98 427.14 183.176Z" fill="#263238"/>
<path d="M426.496 226.898C426.496 227.094 380.618 227.262 324.03 227.262C267.442 227.262 221.564 227.094 221.564 226.898C221.564 226.702 267.428 226.534 324.03 226.534C380.632 226.534 426.496 226.688 426.496 226.898Z" fill="#263238"/>
<path d="M426.496 240.982C426.496 241.192 380.618 241.346 324.03 241.346C267.442 241.346 221.564 241.192 221.564 240.982C221.564 240.772 267.428 240.618 324.03 240.618C380.632 240.618 426.496 240.8 426.496 240.982Z" fill="#263238"/>
<path d="M426.496 255.08C426.496 255.29 380.618 255.444 324.03 255.444C267.442 255.444 221.564 255.29 221.564 255.08C221.564 254.87 267.428 254.716 324.03 254.716C380.632 254.716 426.496 254.884 426.496 255.08Z" fill="#263238"/>
<path d="M426.496 269.178C426.496 269.374 371.434 269.542 303.52 269.542C235.606 269.542 180.544 269.374 180.544 269.178C180.544 268.982 235.592 268.814 303.52 268.814C371.448 268.814 426.496 268.982 426.496 269.178Z" fill="#263238"/>
<path d="M426.496 283.276C426.496 283.472 371.434 283.64 303.52 283.64C235.606 283.64 180.544 283.472 180.544 283.276C180.544 283.08 235.592 282.912 303.52 282.912C371.448 282.912 426.496 283.066 426.496 283.276Z" fill="#263238"/>
<path d="M319.046 297.374C319.046 297.57 288.036 297.738 249.802 297.738C211.568 297.738 180.544 297.57 180.544 297.374C180.544 297.178 211.54 296.996 249.802 296.996C288.064 296.996 319.046 297.164 319.046 297.374Z" fill="#263238"/>
<path d="M426.496 311.458C426.496 311.668 371.434 311.822 303.52 311.822C235.606 311.822 180.544 311.668 180.544 311.458C180.544 311.248 235.592 311.094 303.52 311.094C371.448 311.094 426.496 311.262 426.496 311.458Z" fill="#263238"/>
<path d="M426.496 325.556C426.496 325.752 371.434 325.92 303.52 325.92C235.606 325.92 180.544 325.752 180.544 325.556C180.544 325.36 235.592 325.192 303.52 325.192C371.448 325.192 426.496 325.36 426.496 325.556Z" fill="#263238"/>
<path d="M426.496 339.654C426.496 339.85 371.434 340.018 303.52 340.018C235.606 340.018 180.544 339.85 180.544 339.654C180.544 339.458 235.592 339.29 303.52 339.29C371.448 339.29 426.496 339.444 426.496 339.654Z" fill="#263238"/>
<path d="M426.496 353.752C426.496 353.948 371.434 354.116 303.52 354.116C235.606 354.116 180.544 353.948 180.544 353.752C180.544 353.556 235.592 353.388 303.52 353.388C371.448 353.388 426.496 353.542 426.496 353.752Z" fill="#263238"/>
<path d="M426.496 367.836C426.496 368.046 371.434 368.2 303.52 368.2C235.606 368.2 180.544 368.046 180.544 367.836C180.544 367.626 235.592 367.472 303.52 367.472C371.448 367.472 426.496 367.64 426.496 367.836Z" fill="#263238"/>
<path d="M221.564 381.934C221.564 382.144 212.38 382.298 201.054 382.298C189.728 382.298 180.6 382.2 180.6 381.934C180.6 381.668 189.77 381.57 201.11 381.57C212.45 381.57 221.564 381.738 221.564 381.934Z" fill="#263238"/>
<path d="M426.496 396.032C426.496 396.228 371.434 396.396 303.52 396.396C235.606 396.396 180.6 396.2 180.6 396.032C180.6 395.864 235.648 395.668 303.576 395.668C371.504 395.668 426.496 395.836 426.496 396.032Z" fill="#263238"/>
<path d="M426.496 410.2C426.496 410.396 371.434 410.564 303.52 410.564C235.606 410.564 180.6 410.326 180.6 410.2C180.6 410.074 235.648 409.836 303.576 409.836C371.504 409.836 426.496 409.92 426.496 410.2Z" fill="#263238"/>
<path d="M426.496 424.2C426.496 424.41 371.434 424.564 303.52 424.564C235.606 424.564 180.6 424.424 180.6 424.2C180.6 423.976 235.648 423.836 303.576 423.836C371.504 423.836 426.496 424.018 426.496 424.2Z" fill="#263238"/>
<path d="M369.348 438.311C369.348 438.521 327.082 438.675 274.946 438.675C222.81 438.675 180.544 438.521 180.544 438.311C180.544 438.101 222.796 437.947 274.946 437.947C327.096 437.947 369.348 438.115 369.348 438.311Z" fill="#263238"/>
<path d="M426.496 452.41C426.496 452.606 371.434 452.774 303.52 452.774C235.606 452.774 180.544 452.606 180.544 452.41C180.544 452.214 235.592 452.046 303.52 452.046C371.448 452.046 426.496 452.2 426.496 452.41Z" fill="#263238"/>
<path d="M426.496 466.508C426.496 466.704 371.434 466.872 303.52 466.872C235.606 466.872 180.544 466.704 180.544 466.508C180.544 466.312 235.592 466.144 303.52 466.144C371.448 466.144 426.496 466.298 426.496 466.508Z" fill="#263238"/>
<path d="M393.4 480.607C393.4 480.803 345.8 480.971 287 480.971C228.2 480.971 180.6 480.803 180.6 480.607C180.6 480.411 228.2 480.229 287 480.229C345.8 480.229 393.4 480.397 393.4 480.607Z" fill="#263238"/>
<path d="M426.496 494.689C426.496 494.899 371.434 495.053 303.52 495.053C235.606 495.053 180.6 494.899 180.6 494.689C180.6 494.479 235.648 494.325 303.576 494.325C371.504 494.325 426.496 494.493 426.496 494.689Z" fill="#263238"/>
<path d="M426.496 522.885C426.496 523.081 371.434 523.249 303.52 523.249C235.606 523.249 180.544 523.081 180.544 522.885C180.544 522.689 235.592 522.521 303.52 522.521C371.448 522.521 426.496 522.675 426.496 522.885Z" fill="#263238"/>
<path d="M426.496 536.983C426.496 537.179 371.434 537.347 303.52 537.347C235.606 537.347 180.6 537.179 180.6 536.983C180.6 536.787 235.648 536.619 303.576 536.619C371.504 536.619 426.496 536.773 426.496 536.983Z" fill="#263238"/>
<path d="M426.496 551.069C426.496 551.279 371.434 551.433 303.52 551.433C235.606 551.433 180.544 551.279 180.544 551.069C180.544 550.859 235.592 550.705 303.52 550.705C371.448 550.705 426.496 550.873 426.496 551.069Z" fill="#263238"/>
<path d="M311.22 592.662L310.436 594.804H303.884V594.496C305.388 593.204 306.753 591.759 307.958 590.184C308.653 589.311 309.063 588.246 309.134 587.132C309.147 586.813 309.097 586.494 308.986 586.193C308.876 585.893 308.707 585.617 308.49 585.382C308.292 585.168 308.052 584.997 307.784 584.882C307.517 584.766 307.228 584.708 306.936 584.71C306.407 584.702 305.89 584.87 305.466 585.186C305.007 585.542 304.669 586.031 304.5 586.586H304.206C304.268 585.707 304.64 584.879 305.256 584.248C305.536 583.979 305.868 583.768 306.231 583.628C306.594 583.489 306.981 583.424 307.37 583.436C307.787 583.425 308.201 583.495 308.591 583.644C308.98 583.793 309.336 584.017 309.638 584.304C309.921 584.567 310.147 584.886 310.301 585.24C310.455 585.594 310.535 585.976 310.534 586.362C310.531 586.945 310.397 587.519 310.142 588.042C309.643 589.074 308.981 590.02 308.182 590.842C306.782 592.34 305.97 593.236 305.62 593.544H308.532C308.948 593.553 309.365 593.53 309.778 593.474C310.008 593.43 310.227 593.339 310.422 593.208C310.623 593.053 310.79 592.858 310.912 592.634L311.22 592.662Z" fill="#263238"/>
<path d="M312.522 589.303C312.499 588.184 312.694 587.071 313.096 586.027C313.406 585.218 313.934 584.511 314.622 583.983C315.061 583.649 315.596 583.463 316.148 583.451C316.606 583.47 317.053 583.599 317.452 583.825C317.852 584.052 318.191 584.369 318.444 584.753C319.354 586.026 319.803 587.572 319.718 589.135C319.75 590.258 319.56 591.376 319.158 592.425C318.892 593.201 318.406 593.882 317.758 594.385C317.28 594.768 316.69 594.985 316.078 595.001C315.506 594.964 314.956 594.768 314.489 594.437C314.022 594.106 313.656 593.652 313.432 593.125C312.803 591.951 312.49 590.634 312.522 589.303ZM314.132 589.513C314.092 590.788 314.286 592.06 314.706 593.265C315.014 594.077 315.48 594.483 316.106 594.483C316.451 594.471 316.781 594.331 317.03 594.091C317.409 593.711 317.659 593.221 317.744 592.691C318.033 591.381 318.16 590.041 318.122 588.701C318.15 587.632 318.017 586.566 317.73 585.537C317.614 585.008 317.352 584.523 316.974 584.137C316.839 584.034 316.686 583.958 316.523 583.914C316.359 583.871 316.189 583.86 316.021 583.882C315.854 583.904 315.692 583.959 315.545 584.043C315.399 584.128 315.271 584.241 315.168 584.375C314.706 584.996 314.425 585.732 314.356 586.503C314.207 587.499 314.132 588.505 314.132 589.513Z" fill="#263238"/>
<path d="M158.2 629.902C147.784 612.136 125.776 611.94 118.552 626.29V103.068C118.499 98.3696 120.154 93.8118 123.207 90.2407C126.261 86.6695 130.506 84.3277 135.156 83.65C141.274 82.866 146.832 85.204 156.296 90.65L158.2 629.902Z" fill="white"/>
<path d="M158.2 629.902C158.2 626.052 157.192 392.336 155.918 90.678L156.1 90.986C153.217 89.2826 150.25 87.7266 147.21 86.324C144.152 84.8251 140.813 83.9857 137.41 83.86C133.929 83.8827 130.528 84.9031 127.61 86.8C124.68 88.7222 122.332 91.4092 120.82 94.57C120.04 96.2246 119.484 97.9761 119.168 99.778C118.912 101.595 118.819 103.432 118.888 105.266C118.888 108.999 118.888 112.695 118.888 116.354V181.762C118.888 210.35 118.888 238.196 118.888 265.3C118.888 319.396 118.888 370.118 118.888 416.178C118.888 508.298 118.762 581.742 118.734 626.29L118.454 626.22C120.144 622.846 122.833 620.074 126.154 618.282C129.065 616.773 132.297 615.99 135.576 616C137.035 615.986 138.492 616.103 139.93 616.35C140.616 616.476 141.33 616.686 141.932 616.84C142.568 616.988 143.191 617.189 143.794 617.442C144.942 617.843 146.052 618.344 147.112 618.94L148.596 619.766C149.044 620.06 149.478 620.382 149.898 620.69C150.71 621.218 151.47 621.823 152.166 622.496C152.824 623.126 153.468 623.672 154 624.246C154.877 625.216 155.704 626.23 156.478 627.284C157.584 628.992 158.088 629.748 158.214 629.958L156.422 627.34C155.834 626.444 154.91 625.52 153.916 624.316C153.384 623.756 152.74 623.21 152.082 622.594C151.37 621.937 150.607 621.338 149.8 620.802C149.38 620.508 148.96 620.186 148.512 619.892L147.028 619.094C145.973 618.503 144.867 618.006 143.724 617.61C143.126 617.364 142.508 617.172 141.876 617.036C141.232 616.882 140.574 616.686 139.902 616.546C138.472 616.316 137.024 616.208 135.576 616.224C132.33 616.242 129.136 617.044 126.266 618.562C122.996 620.331 120.355 623.07 118.706 626.402L118.426 626.962V626.346C118.426 581.798 118.342 508.354 118.272 416.234C118.272 370.174 118.272 319.452 118.272 265.356C118.272 238.289 118.272 210.443 118.272 181.818V138.418C118.272 131.11 118.272 123.765 118.272 116.382V105.266C118.209 103.394 118.312 101.52 118.58 99.666C118.904 97.7961 119.478 95.9784 120.288 94.262C121.846 90.9883 124.266 88.2005 127.288 86.198C130.311 84.2341 133.833 83.1752 137.438 83.146C140.946 83.2728 144.389 84.1311 147.546 85.666C150.682 87.066 153.608 88.732 156.492 90.37L156.674 90.482V90.692C157.528 392.336 158.2 626.052 158.2 629.902Z" fill="#263238"/>
<path d="M428.239 382.973C428.132 382.974 428.026 382.95 427.931 382.901C427.836 382.852 427.754 382.781 427.693 382.693C427.58 382.546 427.53 382.361 427.553 382.177C427.577 381.994 427.672 381.827 427.819 381.713L435.771 375.693L427.875 370.681C427.795 370.634 427.726 370.571 427.671 370.496C427.616 370.422 427.577 370.336 427.556 370.246C427.535 370.156 427.533 370.062 427.549 369.971C427.565 369.88 427.6 369.793 427.651 369.715C427.699 369.637 427.763 369.569 427.838 369.515C427.913 369.462 427.997 369.424 428.087 369.403C428.177 369.382 428.27 369.379 428.361 369.394C428.452 369.409 428.539 369.442 428.617 369.491L437.367 375.091C437.464 375.149 437.545 375.231 437.601 375.329C437.658 375.427 437.688 375.538 437.689 375.651C437.696 375.764 437.675 375.876 437.629 375.979C437.583 376.081 437.512 376.171 437.423 376.239L428.673 382.875C428.542 382.954 428.39 382.989 428.239 382.973Z" fill="#E0E0E0"/>
<g opacity="0.3">
<path d="M384.818 90.342V154.91C384.82 155.208 384.91 155.498 385.076 155.745C385.242 155.992 385.477 156.184 385.753 156.297C386.028 156.411 386.33 156.441 386.622 156.383C386.914 156.326 387.182 156.183 387.394 155.974L402.948 140.42C403.233 140.139 403.618 139.981 404.019 139.981C404.42 139.981 404.804 140.139 405.09 140.42L420.63 155.974C420.84 156.188 421.11 156.335 421.404 156.395C421.699 156.455 422.004 156.427 422.282 156.312C422.56 156.198 422.798 156.004 422.965 155.754C423.132 155.504 423.22 155.211 423.22 154.91V90.342H384.818Z" fill="black"/>
</g>
<path d="M381.542 90.342V148.946C381.542 149.246 381.63 149.54 381.797 149.79C381.964 150.04 382.202 150.234 382.48 150.348C382.758 150.463 383.063 150.491 383.358 150.431C383.652 150.371 383.922 150.224 384.132 150.01L399.686 134.47C399.825 134.328 399.99 134.215 400.173 134.137C400.356 134.06 400.552 134.02 400.75 134.02C400.949 134.02 401.145 134.06 401.328 134.137C401.511 134.215 401.676 134.328 401.814 134.47L417.368 150.01C417.579 150.224 417.849 150.371 418.143 150.431C418.437 150.491 418.743 150.463 419.021 150.348C419.299 150.234 419.536 150.04 419.703 149.79C419.87 149.54 419.959 149.246 419.958 148.946V90.342H381.542Z" fill="#793EE5"/>
<path d="M507.808 179.69C508.088 174.706 511.14 171.654 515.438 169.106C517.602 167.854 520.036 167.142 522.534 167.03C525.032 166.918 527.52 167.409 529.788 168.462C532.798 169.862 535.388 172.34 538.734 172.76C544.18 173.46 549.332 168.42 554.68 169.68C556.275 170.058 557.69 170.979 558.683 172.284C559.675 173.589 560.185 175.198 560.123 176.837C560.062 178.475 559.435 180.042 558.347 181.269C557.26 182.497 555.781 183.309 554.162 183.568C557.718 184.086 559.762 188.594 558.362 191.968C556.962 195.342 553.308 197.26 549.71 197.344C546.085 197.219 542.562 196.111 539.518 194.138C536.41 192.332 533.498 190.148 530.25 188.538C527.049 186.808 523.339 186.268 519.778 187.012C515.074 188.258 511.728 192.71 510.496 197.428C509.264 202.146 509.796 207.13 510.496 211.96C511.196 216.79 512.162 221.648 511.7 226.506C511.716 226.791 511.664 227.076 511.547 227.337C511.43 227.598 511.252 227.827 511.028 228.004C510.3 228.396 509.474 227.71 508.942 227.08C502.943 219.921 498.41 211.654 495.6 202.748C493.948 197.582 493.038 192.542 495.012 187.502C496.986 182.462 503.65 177.632 507.836 179.69" fill="#263238"/>
<path d="M503.216 203.742L511.182 252.896C512.666 262.08 518.63 270.956 533.05 267.932C545.342 264.376 544.432 255.528 542.85 244.622C542.85 244.622 556.374 241.094 555.17 227.332C554.582 220.682 552.258 207.074 550.018 194.796C548.86 188.428 545.346 182.73 540.174 178.838C535.003 174.946 528.555 173.146 522.116 173.796L520.786 173.922C506.562 176.246 500.542 189.588 503.216 203.742Z" fill="#FFBF9D"/>
<path d="M542.836 244.622C536.482 245.239 530.084 244.024 524.398 241.122C524.398 241.122 529.802 251.356 543.382 248.738L542.836 244.622Z" fill="#FF9A6C"/>
<path d="M547.302 208.6C547.357 209.111 547.212 209.624 546.895 210.029C546.579 210.434 546.117 210.7 545.608 210.77C545.36 210.816 545.105 210.812 544.859 210.757C544.613 210.703 544.381 210.599 544.176 210.453C543.971 210.306 543.797 210.12 543.665 209.905C543.534 209.69 543.447 209.451 543.41 209.202C543.354 208.691 543.5 208.178 543.816 207.773C544.132 207.368 544.594 207.102 545.104 207.032C545.351 206.988 545.605 206.994 545.85 207.049C546.096 207.104 546.327 207.208 546.532 207.354C546.737 207.5 546.91 207.686 547.042 207.9C547.175 208.113 547.263 208.352 547.302 208.6Z" fill="#263238"/>
<path d="M547.722 201.838C547.512 202.118 545.916 201.166 543.802 201.39C541.688 201.614 540.246 202.79 539.994 202.58C539.742 202.37 540.064 201.992 540.694 201.432C541.543 200.71 542.594 200.265 543.704 200.158C544.804 200.044 545.913 200.284 546.868 200.844C547.568 201.278 547.834 201.712 547.722 201.838Z" fill="#263238"/>
<path d="M528.668 210.462C528.724 210.973 528.578 211.486 528.261 211.891C527.945 212.296 527.483 212.562 526.974 212.632C526.726 212.678 526.472 212.673 526.226 212.619C525.98 212.564 525.747 212.461 525.542 212.315C525.337 212.168 525.163 211.982 525.032 211.767C524.9 211.552 524.813 211.313 524.776 211.064C524.72 210.555 524.864 210.044 525.177 209.639C525.49 209.234 525.949 208.967 526.456 208.894C526.704 208.848 526.96 208.852 527.207 208.906C527.453 208.961 527.687 209.064 527.893 209.21C528.1 209.357 528.274 209.543 528.407 209.758C528.54 209.973 528.629 210.212 528.668 210.462Z" fill="#263238"/>
<path d="M527.002 204.4C526.778 204.68 525.182 203.728 523.068 203.938C520.954 204.148 519.512 205.338 519.26 205.142C519.008 204.946 519.344 204.554 519.96 203.994C520.811 203.266 521.868 202.821 522.984 202.72C524.083 202.601 525.191 202.837 526.148 203.392C526.834 203.756 527.114 204.204 527.002 204.4Z" fill="#263238"/>
<path d="M536.2 219.226C537.276 218.754 538.411 218.429 539.574 218.26C540.106 218.148 540.596 217.994 540.652 217.616C540.647 217.052 540.466 216.504 540.134 216.048L538.132 212.1C535.332 206.5 533.232 201.824 533.47 201.712C533.708 201.6 536.144 206.08 538.958 211.708L540.89 215.684C541.293 216.3 541.471 217.037 541.394 217.77C541.332 217.968 541.227 218.15 541.087 218.302C540.946 218.455 540.774 218.574 540.582 218.652C540.289 218.761 539.983 218.831 539.672 218.862C538.534 219.125 537.368 219.247 536.2 219.226Z" fill="#263238"/>
<path d="M526.708 196C526.568 196.602 524.426 196.546 521.976 197.092C519.526 197.638 517.594 198.492 517.216 198.03C517.034 197.806 517.328 197.232 518.084 196.63C519.09 195.832 520.27 195.28 521.528 195.02C522.78 194.741 524.081 194.765 525.322 195.09C526.274 195.3 526.778 195.706 526.708 196Z" fill="#263238"/>
<path d="M546.336 195.804C546.014 196.322 544.502 195.972 542.752 196.126C541.002 196.28 539.56 196.77 539.168 196.308C538.986 196.084 539.168 195.58 539.77 195.048C540.571 194.41 541.548 194.034 542.57 193.97C543.602 193.882 544.636 194.122 545.524 194.656C546.224 195.09 546.476 195.552 546.336 195.804Z" fill="#263238"/>
<path d="M505.4 213.808C505.162 213.724 495.6 211.96 496.916 221.326C498.232 230.692 507.318 227.514 507.29 227.234C507.262 226.954 505.4 213.808 505.4 213.808Z" fill="#FFBF9D"/>
<path d="M503.916 224.07C503.916 224.07 503.776 224.21 503.51 224.364C503.145 224.587 502.708 224.657 502.292 224.56C501.64 224.254 501.08 223.783 500.667 223.194C500.255 222.604 500.004 221.917 499.94 221.2C499.818 220.4 499.87 219.583 500.094 218.806C500.147 218.505 500.271 218.22 500.456 217.977C500.641 217.733 500.882 217.538 501.158 217.406C501.339 217.335 501.54 217.328 501.725 217.387C501.911 217.445 502.072 217.566 502.18 217.728C502.334 217.98 502.306 218.176 502.348 218.176C502.39 218.176 502.53 217.994 502.348 217.616C502.268 217.39 502.109 217.201 501.9 217.084C501.616 216.92 501.279 216.875 500.962 216.958C500.588 217.087 500.254 217.309 499.989 217.603C499.725 217.897 499.539 218.253 499.45 218.638C499.166 219.504 499.094 220.426 499.24 221.326C499.307 222.165 499.619 222.967 500.136 223.631C500.654 224.295 501.354 224.793 502.152 225.064C502.403 225.091 502.658 225.065 502.899 224.988C503.14 224.91 503.362 224.784 503.552 224.616C504 224.294 504 224.084 503.916 224.07Z" fill="#FF9A6C"/>
<path d="M548.884 182C547.27 179.475 545.058 177.388 542.444 175.924C536.94 172.504 530.498 170.907 524.034 171.36C517.556 171.873 511.531 174.885 507.234 179.76C503.941 183.75 501.887 188.617 501.326 193.76C500.782 198.885 501.258 204.066 502.726 209.006C503.194 211.232 504.298 213.275 505.904 214.886C506.968 215.796 508.704 216.286 509.726 215.334C510.261 214.69 510.571 213.889 510.608 213.052C511.686 205.618 512.68 197.652 509.32 190.918C510.809 188.341 512.81 186.097 515.2 184.324C516.396 183.446 517.754 182.815 519.196 182.466C520.638 182.118 522.135 182.059 523.6 182.294C527.926 183.162 530.922 186.984 534.548 189.476C537.163 191.247 540.162 192.371 543.297 192.755C546.432 193.14 549.614 192.774 552.58 191.688L548.884 182Z" fill="#263238"/>
<path d="M538.104 224.924C537.991 225.815 537.756 226.687 537.404 227.514C537.22 227.924 536.952 228.291 536.617 228.591C536.281 228.89 535.886 229.115 535.458 229.25C534.99 229.347 534.506 229.326 534.049 229.189C533.592 229.053 533.176 228.804 532.84 228.466C532.182 227.763 531.761 226.872 531.636 225.918C531.496 225.064 531.636 223.986 532.49 223.706C532.839 223.622 533.204 223.622 533.554 223.706L538.328 224.574" fill="#FF9A6C"/>
<path d="M537.096 228.914C536.314 229.137 535.496 229.208 534.688 229.124C533.854 228.982 533.102 228.539 532.574 227.878C532.272 227.471 532.057 227.006 531.944 226.512C531.831 226.018 531.821 225.506 531.916 225.008C531.965 224.75 532.049 224.5 532.168 224.266C532.294 224.056 532.266 224.07 532.462 224.056C532.658 224.042 532.966 224.14 533.232 224.182L534.016 224.322C535.038 224.518 535.962 224.672 536.732 224.784C537.564 224.993 538.424 225.068 539.28 225.008C538.516 224.614 537.693 224.35 536.844 224.224L534.156 223.608L533.372 223.426C533.086 223.358 532.796 223.307 532.504 223.272C532.278 223.251 532.052 223.306 531.86 223.426C531.678 223.545 531.537 223.715 531.454 223.916C531.303 224.212 531.195 224.528 531.132 224.854C531.01 225.463 531.024 226.092 531.174 226.694C531.324 227.297 531.606 227.859 532 228.34C532.653 229.134 533.594 229.638 534.618 229.74C535.275 229.81 535.938 229.699 536.536 229.418C536.956 229.152 537.124 228.956 537.096 228.914Z" fill="#263238"/>
<path d="M557.816 171.598C557.904 171.794 557.965 172.001 557.998 172.214C558.115 172.823 558.139 173.446 558.068 174.062C557.911 175.199 557.529 176.293 556.945 177.281C556.361 178.269 555.586 179.13 554.666 179.816C553.26 180.772 551.679 181.441 550.014 181.782C548.348 182.123 546.632 182.131 544.964 181.804C541.156 181.286 537.348 179.452 533.372 177.814C529.396 176.176 525.322 175.014 521.668 175.742C518.412 176.356 515.455 178.042 513.268 180.53C511.774 182.185 510.568 184.078 509.698 186.13C509.11 187.53 508.9 188.44 508.83 188.426C508.852 188.212 508.894 188.002 508.956 187.796C509.097 187.202 509.275 186.618 509.488 186.046C510.276 183.919 511.448 181.954 512.946 180.25C515.15 177.643 518.177 175.865 521.528 175.21C525.35 174.482 529.578 175.616 533.568 177.268C537.558 178.92 541.31 180.726 545.006 181.258C548.235 181.928 551.599 181.288 554.358 179.48C556.163 178.177 557.393 176.225 557.788 174.034C557.895 173.226 557.904 172.408 557.816 171.598Z" fill="#455A64"/>
<path d="M496.3 200.2C496.252 199.321 496.375 198.441 496.664 197.61C497.228 195.581 498.179 193.679 499.464 192.01C500.185 191.091 501.002 190.251 501.9 189.504C502.63 188.833 503.515 188.352 504.476 188.104C505.134 187.958 505.823 188.032 506.436 188.314C506.856 188.538 507.01 188.748 506.982 188.776C506.232 188.418 505.382 188.33 504.574 188.524C502.7 189.323 501.096 190.645 499.954 192.332C498.695 193.957 497.711 195.778 497.042 197.722C496.552 199.164 496.398 200.2 496.3 200.2Z" fill="#455A64"/>
<path d="M498.778 208.236C498.808 207.353 498.987 206.482 499.31 205.66C500.004 203.617 501.067 201.719 502.446 200.06C503.815 198.416 505.476 197.04 507.346 196C508.099 195.533 508.928 195.202 509.796 195.02C509.796 195.118 508.914 195.524 507.57 196.42C504.036 198.649 501.289 201.929 499.716 205.8C499.453 206.63 499.14 207.444 498.778 208.236Z" fill="#455A64"/>
<path d="M582.05 593.6L603.498 621.796L614.026 648.998C614.207 649.461 614.481 649.883 614.831 650.236C615.181 650.589 615.6 650.867 616.062 651.052C616.524 651.237 617.019 651.325 617.516 651.312C618.013 651.298 618.503 651.182 618.954 650.972C619.478 650.728 619.936 650.361 620.289 649.903C620.643 649.445 620.881 648.909 620.984 648.34C622.314 640.976 627.088 613.83 625.408 611.856C623.448 609.56 604.758 580.608 604.758 580.608L582.05 593.6Z" fill="#455A64"/>
<g opacity="0.6">
<path d="M618.953 651L623.994 609.938L624.876 611.156C625.643 612.202 626.01 613.489 625.911 614.782C625.645 618.254 624.694 627.788 621.068 648.312C620.962 648.899 620.714 649.451 620.346 649.92C619.977 650.389 619.499 650.76 618.953 651Z" fill="white"/>
</g>
<g opacity="0.6">
<path d="M611.408 604.954C611.24 605.468 611.269 606.026 611.488 606.519C611.708 607.013 612.103 607.408 612.598 607.628C613.105 607.817 613.666 607.802 614.163 607.585C614.659 607.368 615.052 606.967 615.258 606.466C615.423 605.924 615.385 605.34 615.15 604.825C614.916 604.309 614.501 603.897 613.984 603.666C613.433 603.528 612.85 603.61 612.358 603.895C611.867 604.18 611.506 604.645 611.352 605.192" fill="white"/>
</g>
<path d="M616.42 633.71C615.099 633.211 613.669 633.077 612.279 633.324C610.889 633.57 609.592 634.187 608.524 635.11C608.454 635.11 608.65 634.578 609.252 633.99C610.07 633.256 611.08 632.771 612.164 632.59C613.245 632.4 614.358 632.527 615.37 632.954C616.126 633.248 616.476 633.64 616.42 633.71Z" fill="#263238"/>
<path d="M617.162 639.03C616.007 639.167 614.862 639.373 613.732 639.646C611.926 640.262 610.848 641.466 610.666 641.312C610.484 641.158 611.422 639.618 613.466 638.904C614.047 638.63 614.686 638.499 615.329 638.52C615.972 638.542 616.6 638.717 617.162 639.03Z" fill="#263238"/>
<path d="M616.658 626.038C614.858 626.086 613.065 626.277 611.296 626.611C609.584 627.186 607.918 627.888 606.312 628.711C607.599 627.323 609.259 626.332 611.093 625.858C612.927 625.384 614.858 625.447 616.658 626.038Z" fill="#263238"/>
<path d="M610.848 616.91C610.848 617.148 608.832 617.624 606.718 619.052C604.604 620.48 603.33 622.146 603.134 622.02C603.841 620.553 604.931 619.305 606.289 618.405C607.646 617.506 609.221 616.989 610.848 616.91Z" fill="#263238"/>
<path d="M604.8 608.482C603.251 608.97 601.78 609.677 600.432 610.582C599.228 611.673 598.182 612.926 597.324 614.306C597.226 614.306 597.324 613.69 597.674 612.822C598.199 611.705 598.979 610.728 599.952 609.969C600.925 609.21 602.063 608.691 603.274 608.454C604.184 608.286 604.8 608.384 604.8 608.482Z" fill="#263238"/>
<path d="M599.298 609C599.298 609 598.92 608.692 598.472 607.95C597.844 606.884 597.435 605.704 597.268 604.478C597.075 603.594 597.173 602.671 597.548 601.846C597.692 601.58 597.919 601.368 598.194 601.242C598.469 601.116 598.778 601.082 599.074 601.146C599.644 601.284 600.143 601.628 600.474 602.112C601.109 603.123 601.371 604.324 601.215 605.507C601.059 606.691 600.495 607.782 599.62 608.594C598.737 609.377 597.643 609.881 596.474 610.043C595.306 610.205 594.116 610.017 593.054 609.504C592.79 609.371 592.558 609.184 592.372 608.955C592.186 608.726 592.051 608.46 591.976 608.174C591.924 607.875 591.971 607.567 592.11 607.297C592.249 607.026 592.472 606.809 592.746 606.676C593.56 606.321 594.453 606.186 595.336 606.284C596.568 606.346 597.781 606.621 598.92 607.096C599.348 607.24 599.744 607.468 600.082 607.768C598.548 607.233 596.945 606.922 595.322 606.844C594.549 606.783 593.774 606.918 593.068 607.236C592.919 607.307 592.797 607.425 592.721 607.572C592.645 607.718 592.619 607.886 592.648 608.048C592.712 608.232 592.813 608.4 592.946 608.542C593.078 608.685 593.239 608.798 593.418 608.874C594.344 609.295 595.373 609.439 596.379 609.287C597.385 609.135 598.326 608.695 599.088 608.02C599.824 607.332 600.305 606.415 600.453 605.418C600.6 604.421 600.405 603.404 599.9 602.532C599.682 602.184 599.343 601.93 598.948 601.818C598.786 601.782 598.616 601.8 598.465 601.868C598.314 601.936 598.188 602.051 598.108 602.196C597.789 602.892 597.691 603.669 597.828 604.422C598.036 606.025 598.534 607.576 599.298 609Z" fill="#263238"/>
<path d="M561.862 607.124L557.662 635.712C557.662 635.712 585.508 647.458 585.242 652.82L529.34 648.802L534.016 604.002L561.862 607.124Z" fill="#455A64"/>
<g opacity="0.6">
<path d="M540.722 631.399C540.168 631.507 539.674 631.816 539.333 632.265C538.992 632.714 538.829 633.273 538.874 633.835C538.957 634.391 539.25 634.894 539.693 635.24C540.136 635.586 540.694 635.75 541.254 635.697C541.842 635.582 542.367 635.254 542.728 634.777C543.09 634.299 543.263 633.704 543.214 633.107C543.062 632.538 542.696 632.048 542.193 631.741C541.69 631.433 541.088 631.331 540.512 631.455" fill="white"/>
</g>
<g opacity="0.6">
<path d="M529.368 648.801L529.844 644.279L583.688 650.047C584.237 650.383 584.692 650.851 585.013 651.409C585.333 651.967 585.508 652.596 585.522 653.239L529.368 648.801Z" fill="white"/>
</g>
<path d="M558.6 635.515C558.6 635.795 557.2 635.767 555.8 636.495C554.4 637.223 553.532 638.287 553.294 638.147C553.056 638.007 553.63 636.495 555.38 635.641C557.13 634.787 558.712 635.277 558.6 635.515Z" fill="#263238"/>
<path d="M564.2 638.583C564.2 638.849 562.996 639.185 561.96 640.235C560.924 641.285 560.56 642.475 560.238 642.433C559.916 642.391 559.958 640.823 561.288 639.549C562.618 638.275 564.2 638.317 564.2 638.583Z" fill="#263238"/>
<path d="M566.748 645.931C566.496 645.931 566.272 644.531 567.126 643.131C567.98 641.731 569.324 641.255 569.422 641.493C569.52 641.731 568.638 642.445 567.938 643.621C567.238 644.797 567 645.931 566.748 645.931Z" fill="#263238"/>
<path d="M558.852 628.909C558.712 629.147 557.452 628.629 555.954 628.559C554.456 628.489 553.154 628.853 553.042 628.559C552.93 628.265 554.176 627.467 555.996 627.565C557.816 627.663 559.006 628.699 558.852 628.909Z" fill="#263238"/>
<g opacity="0.3">
<path d="M561.022 612.78L560.294 617.876L532.938 614.628L533.414 610.022L561.022 612.78Z" fill="black"/>
</g>
<path d="M559.58 623.126C558.634 623.27 557.668 623.159 556.78 622.804C555.799 622.516 554.859 622.106 553.98 621.586C553.453 621.279 552.948 620.938 552.468 620.564C552.17 620.357 551.91 620.101 551.698 619.808C551.552 619.604 551.473 619.359 551.473 619.108C551.473 618.857 551.552 618.612 551.698 618.408C551.855 618.234 552.051 618.099 552.27 618.014C552.489 617.929 552.724 617.896 552.958 617.918C553.313 617.954 553.662 618.038 553.994 618.17C554.57 618.383 555.128 618.645 555.66 618.954C556.552 619.488 557.359 620.153 558.054 620.928C559.216 622.328 559.538 623.336 559.454 623.378C559.37 623.42 558.782 622.538 557.578 621.404C556.875 620.744 556.089 620.179 555.24 619.724C554.743 619.464 554.228 619.239 553.7 619.052C553.126 618.842 552.622 618.772 552.44 619.052C552.258 619.332 552.37 619.178 552.44 619.374C552.607 619.579 552.8 619.763 553.014 619.92C553.46 620.279 553.927 620.611 554.414 620.914C555.234 621.436 556.101 621.881 557.004 622.244C557.883 622.474 558.744 622.769 559.58 623.126Z" fill="#263238"/>
<path d="M559.188 623.477C558.746 622.614 558.594 621.632 558.754 620.677C558.814 619.635 559.055 618.611 559.468 617.653C559.706 617.085 560.007 616.545 560.364 616.043C560.552 615.689 560.829 615.39 561.168 615.176C561.506 614.963 561.895 614.841 562.296 614.825C562.543 614.858 562.776 614.962 562.967 615.123C563.158 615.284 563.299 615.496 563.374 615.735C563.479 616.075 563.535 616.428 563.542 616.785C563.579 617.416 563.513 618.05 563.346 618.661C563.085 619.706 562.565 620.669 561.834 621.461C560.588 622.791 559.412 622.987 559.412 622.861C559.412 622.735 560.336 622.301 561.316 620.999C561.885 620.254 562.287 619.394 562.492 618.479C562.613 617.946 562.655 617.399 562.618 616.855C562.618 616.253 562.422 615.749 562.198 615.791C561.974 615.833 561.4 616.155 561.12 616.603C560.793 617.042 560.507 617.511 560.266 618.003C559.851 618.891 559.564 619.834 559.412 620.803C559.16 622.399 559.342 623.449 559.188 623.477Z" fill="#263238"/>
<path d="M579.306 369.278C579.306 369.278 592.494 394.576 592.494 415.044C592.494 419.37 565.726 634.102 565.726 634.102L527.926 630.91L546.294 432.516L540.344 392.196L579.306 369.278Z" fill="#263238"/>
<path d="M494.956 391.692C494.956 391.692 503.804 465.626 507.962 494.116C512.316 523.936 520.856 529.564 520.856 529.564L596.4 625.03L621.208 603.036L556.15 505.4C556.15 505.4 542.374 388.822 542.934 391.706C543.494 394.59 494.956 391.692 494.956 391.692Z" fill="#263238"/>
<path d="M522.2 530.796C522.373 531.127 522.585 531.437 522.83 531.72L524.79 534.24L531.972 543.494L555.45 574.294C564.592 586.306 572.936 597.156 579.11 604.898C582.19 608.776 584.71 611.898 586.502 613.998L588.56 616.434C588.79 616.723 589.043 616.995 589.316 617.246C589.137 616.919 588.921 616.613 588.672 616.336C588.182 615.692 587.538 614.852 586.726 613.816L579.6 604.492C573.538 596.568 565.264 585.732 556.122 573.692C546.98 561.652 538.58 550.9 532.406 543.2C529.326 539.322 526.806 536.2 525.014 534.086L522.956 531.664C522.729 531.354 522.476 531.063 522.2 530.796Z" fill="#455A64"/>
<path d="M547.876 434.98C547.857 435.091 547.857 435.204 547.876 435.316L547.96 436.296C548.044 437.229 548.17 438.489 548.338 440.076C548.702 443.408 549.206 448.14 549.85 453.95C551.25 465.71 553.07 481.852 555.114 499.688C555.352 501.648 555.576 503.594 555.8 505.414V505.512V505.582L579.18 540.666C582.134 545.062 584.528 548.604 586.18 551.11C586.992 552.3 587.65 553.224 588.112 553.91L588.63 554.638C588.756 554.792 588.812 554.876 588.826 554.862C588.792 554.767 588.744 554.677 588.686 554.596L588.224 553.84L586.404 550.97L579.6 540.4L556.402 505.176V505.33C556.192 503.496 555.954 501.55 555.73 499.59C553.588 481.768 551.656 465.626 550.256 453.88C549.514 448.07 548.926 443.352 548.506 440.02C548.296 438.438 548.128 437.22 548.002 436.268C547.932 435.876 547.89 435.554 547.848 435.288C547.806 435.022 547.89 434.966 547.876 434.98Z" fill="#455A64"/>
<g opacity="0.3">
<path d="M498.4 419.692C498.4 419.692 527.8 427.434 547.904 424.214C576.338 419.692 591.892 406.686 591.892 406.686L589.358 398.566L497.182 410.2L498.4 419.692Z" fill="black"/>
</g>
<path d="M544.6 251.72L567 258.16C567 258.16 580.23 352.352 583.506 366.1C587.622 383.334 592.256 396.9 591.906 401.744C591.906 401.744 581.7 415.282 551.614 418.824C521.528 422.366 492.8 413.952 492.8 413.952L490.336 357.434C490.336 357.434 476.448 306.838 476.154 298.396C475.398 277.648 480.438 265.566 480.438 265.566L510.398 252.14C518.742 261.464 540.148 264.6 544.6 251.72Z" fill="#793EE5"/>
<path d="M586.138 275.436C584.31 271.393 581.666 267.772 578.373 264.799C575.08 261.826 571.208 259.566 567 258.16L568.918 305.508L581.294 320.978L568.918 329.378L589.708 356.356C589.708 356.356 609.63 347.004 610.512 338.604C611.394 330.204 589.4 282.8 586.138 275.436Z" fill="#793EE5"/>
<path d="M529.088 327.6L524.02 345.198C541.506 365.932 589.68 356.314 589.68 356.314L570.514 329.238C560.574 332.528 529.088 327.6 529.088 327.6Z" fill="#793EE5"/>
<path d="M524.818 325.094C524.818 325.094 515.83 307.384 514.864 307.174C513.898 306.964 499.758 301.994 499.758 301.994C499.331 303.141 499.331 304.403 499.758 305.55L494.69 306.194C494.69 306.194 495.446 309.33 497.168 309.764L495.334 311.374C496.252 312.597 497.434 313.597 498.792 314.3C499.312 314.557 499.884 314.69 500.465 314.69C501.045 314.69 501.617 314.557 502.138 314.3C502.138 314.3 501.48 315.476 504.392 317.31C507.304 319.144 513.184 327.656 513.184 327.656L524.818 325.094Z" fill="#FFBF9D"/>
<path d="M500.206 305.606C503.19 307.052 506.285 308.26 509.46 309.218C510.748 309.68 512.036 310.03 513.044 310.506C513.936 310.949 514.673 311.652 515.158 312.522C515.998 314.048 516.32 315.154 516.446 315.098C516.386 314.116 516.109 313.159 515.634 312.298C515.162 311.272 514.365 310.43 513.366 309.904C512.176 309.367 510.956 308.899 509.712 308.504C506.621 307.298 503.443 306.329 500.206 305.606Z" fill="#FF9A6C"/>
<path d="M496.916 309.764C497.697 310.237 498.562 310.555 499.464 310.702C501.088 311.136 503.37 311.5 505.792 312.102C507.857 312.618 509.801 313.531 511.518 314.79C512.806 315.798 513.38 316.666 513.492 316.596C513.177 315.716 512.613 314.948 511.868 314.384C510.178 312.927 508.168 311.891 506.002 311.36C503.51 310.688 501.214 310.408 499.576 310.114C498.702 309.915 497.811 309.798 496.916 309.764Z" fill="#FF9A6C"/>
<path d="M509.866 317.226C508.95 316.186 507.785 315.395 506.479 314.93C505.174 314.465 503.771 314.339 502.404 314.566C502.404 314.79 504.182 314.916 506.226 315.658C508.27 316.4 509.726 317.408 509.866 317.226Z" fill="#FF9A6C"/>
<path d="M488.684 265.804C495.082 267.372 496.972 274.89 501.396 289.926C505.82 304.962 510.678 320.446 510.678 320.446L513.184 327.656L568.903 314.202L580.173 332.052C580.173 332.052 543.942 360.836 517.888 361.984C505.204 360.808 496.888 356.048 486.598 338.94C480.746 329.28 476.91 320.32 475.174 311.598C472.752 299.432 468.692 287.532 472.108 276.024C474.782 266.98 479.542 263.564 488.684 265.804Z" fill="#793EE5"/>
<path d="M570.472 301.42C570.323 298.885 569.924 296.372 569.282 293.916C568.886 291.406 568.234 288.943 567.336 286.566C567.493 289.099 567.891 291.612 568.526 294.07C568.926 296.579 569.578 299.041 570.472 301.42Z" fill="#263238"/>
<g opacity="0.3">
<path d="M531.118 359.562C534.365 358.221 537.75 357.24 541.212 356.636C544.922 356.076 548.044 357.182 551.754 357.756C562.828 359.492 571.088 358.176 581.532 357.756L582.106 360.962C577.514 364.546 571.732 365.694 565.894 365.582C560.616 365.484 555.422 363.762 550.13 363.916C545.971 364.26 541.865 365.082 537.894 366.366C531.203 368.381 524.171 369.005 517.23 368.2C499.912 365.596 493.234 351.974 490.35 345.632C491.775 347.936 493.376 350.126 495.138 352.184C506.156 363.622 521.976 363.412 531.118 359.562Z" fill="black"/>
</g>
<path d="M582.106 332.206C582.025 332.293 581.936 332.373 581.84 332.444L581.028 333.074C580.3 333.634 579.222 334.474 577.808 335.426C575.008 337.428 570.808 340.228 565.586 343.462C559.426 347.278 553.061 350.751 546.518 353.864C544.67 354.732 542.78 355.642 540.778 356.412L537.768 357.644C536.746 358.036 535.696 358.386 534.646 358.75C530.302 360.301 525.813 361.413 521.248 362.068C518.922 362.308 516.582 362.369 514.248 362.25C511.966 362.02 509.725 361.488 507.584 360.668C503.57 359.064 499.912 356.685 496.818 353.668C491.689 348.494 487.454 342.505 484.288 335.944C482.106 331.578 480.235 327.063 478.688 322.434C478.128 320.796 477.75 319.508 477.512 318.626C477.418 318.215 477.334 317.879 477.26 317.618C477.237 317.502 477.237 317.383 477.26 317.268C477.317 317.373 477.36 317.487 477.386 317.604L477.708 318.584C478.002 319.452 478.422 320.712 479.01 322.336C480.653 326.919 482.593 331.39 484.82 335.72C488.021 342.181 492.253 348.077 497.35 353.178C500.386 356.129 503.973 358.455 507.906 360.024C509.987 360.825 512.168 361.339 514.388 361.55C516.685 361.67 518.988 361.609 521.276 361.368C525.791 360.718 530.232 359.625 534.534 358.106L537.628 357.014L540.624 355.796C542.612 355.026 544.502 354.144 546.35 353.29C552.846 350.189 559.178 346.755 565.32 343C570.598 339.822 574.784 337.092 577.64 335.16L580.944 332.934L581.798 332.36C581.994 332.262 582.092 332.192 582.106 332.206Z" fill="#263238"/>
<path d="M499.912 283.234C499.94 283.544 500.006 283.849 500.108 284.144C500.29 284.788 500.528 285.642 500.808 286.706L503.524 296.17C505.904 304.234 509.124 315.308 512.848 327.754L512.946 328.076L513.31 327.978C514.612 327.656 516.11 327.334 517.65 327.012C531.384 324.072 543.774 321.202 552.65 318.85C557.102 317.702 560.686 316.652 563.15 315.91L565.95 315C566.28 314.908 566.603 314.791 566.916 314.65C566.572 314.684 566.233 314.759 565.908 314.874L563.108 315.644C560.616 316.302 557.018 317.268 552.552 318.36C543.634 320.586 531.23 323.372 517.552 326.312C516.026 326.648 514.598 326.942 513.114 327.32L513.576 327.544L504 296.03C502.782 292.096 501.788 288.918 501.074 286.636C500.738 285.586 500.458 284.746 500.248 284.102C500.17 283.8 500.057 283.509 499.912 283.234Z" fill="#263238"/>
<path d="M584.808 327.88L608.734 327.446C609.887 327.418 611.004 327.035 611.931 326.348C612.858 325.661 613.551 324.705 613.914 323.61L627.914 281.218C628.964 278.026 626.612 275.436 622.832 275.226L593.544 273.574C588.84 273.574 586.334 275.044 585.536 277.774L576.394 311.164C574 318.864 577.892 327.6 584.808 327.88Z" fill="#263238"/>
<path d="M567.798 311.724L571.62 303.618L578.69 301.63L576.436 309.092C578.9 310.296 582.162 311.066 584.29 309.89C586.418 308.714 594.776 300.412 596.358 301.21C597.94 302.008 599.34 303.912 597.898 305.732C596.456 307.552 588.63 313.208 590.24 314.874C591.85 316.54 600.88 309.274 603.526 309.764C606.172 310.254 607.796 311.85 606.326 312.984C604.856 314.118 601.216 317.744 600.572 319.34C600.726 321.328 601.678 324.156 600.81 324.646C598.684 325.652 596.454 326.422 594.16 326.942C593.684 326.942 590.324 328.342 587.23 329.532C583.751 330.94 579.878 331.03 576.338 329.784L574.546 329.154C573.176 328.668 571.991 327.769 571.156 326.58C570.32 325.391 569.876 323.971 569.884 322.518L569.954 316.54L567.798 311.724Z" fill="#FFBF9D"/>
</svg>
