<svg width="42" height="42" viewBox="0 0 42 42" fill="none" xmlns="http://www.w3.org/2000/svg">
<path d="M19.25 31.5V36.75C19.25 37.625 18.55 38.5 17.5 38.5C16.45 38.5 15.75 37.625 15.75 36.75V31.5M19.25 31.5H15.75M19.25 31.5H22.75M15.75 31.5H26.25M15.75 31.5C13.825 31.5 12.25 29.925 12.25 28V19.25C12.25 17.325 13.825 15.75 15.75 15.75H26.25C28.175 15.75 29.75 17.325 29.75 19.25V28C29.75 29.925 28.175 31.5 26.25 31.5M26.25 31.5V36.75C26.25 37.625 25.55 38.5 24.5 38.5C23.45 38.5 22.75 37.625 22.75 36.75V31.5M26.25 31.5H22.75M8.75 19.25V26.25C8.75 27.3 8.05 28 7 28C5.95 28 5.25 27.3 5.25 26.25V19.25C5.25 18.2 5.95 17.5 7 17.5C8.05 17.5 8.75 18.2 8.75 19.25ZM36.75 19.25V26.25C36.75 27.3 36.05 28 35 28C33.95 28 33.25 27.3 33.25 26.25V19.25C33.25 18.2 33.95 17.5 35 17.5C36.05 17.5 36.75 18.2 36.75 19.25ZM16.8 12.25H25.2C26.775 12.25 28 10.9375 28 9.2505C28 5.12575 24.85 1.75 21 1.75C17.15 1.75 14 5.12575 14 9.2505C14 10.9375 15.225 12.25 16.8 12.25Z" stroke="#F7F6F8" stroke-width="2" stroke-miterlimit="10" stroke-linecap="round" stroke-linejoin="round"/>
</svg>
