<svg width="42" height="42" viewBox="0 0 42 42" fill="none" xmlns="http://www.w3.org/2000/svg">
<path d="M16.8933 36.5142C16.893 36.2549 16.7778 36.0089 16.5789 35.8426C16.3783 35.6786 16.1165 35.6094 15.8611 35.6529C13.0771 36.169 9.54639 36.1758 8.521 33.2962C7.89027 31.757 6.87952 30.4029 5.58325 29.3604C5.31494 29.2228 5.07312 29.0389 4.8689 28.8171C4.7999 28.3955 4.43642 28.0855 4.00928 28.0838H4.00575C3.52393 28.0838 3.13268 28.4735 3.13075 28.9554C3.12563 29.9534 4.37489 30.7003 4.74403 30.8968C5.67159 31.7299 6.40186 32.7593 6.88208 33.9098C7.49219 35.6239 9.35156 38.2763 15.1467 37.5363C15.1519 38.1738 15.1604 38.5036 15.1672 38.7548L15.1758 39.2709C15.1758 39.7541 15.5676 40.1459 16.0508 40.1459C16.534 40.1459 16.9258 39.7541 16.9258 39.2709L16.9172 38.7068C16.907 38.3548 16.8933 37.8473 16.8933 36.5142ZM36.6116 9.14142C36.5586 9.07477 36.5022 9.0047 36.4441 8.93463C36.5616 8.56474 36.654 8.18738 36.7209 7.8051C36.9918 5.92703 36.7516 4.01062 36.0254 2.25752C35.9297 2.01666 35.7318 1.83071 35.4854 1.75006C35.2375 1.66803 32.9766 1.05963 28.2581 4.16828C24.3049 3.16339 20.163 3.16339 16.2097 4.16828C11.4929 1.09552 9.24561 1.67145 8.99609 1.74494C8.74498 1.82419 8.54247 2.01164 8.44409 2.25592C7.70464 4.03551 7.46591 5.98332 7.75366 7.88874C7.82063 8.23812 7.90566 8.58376 8.0083 8.92438C7.94678 8.99968 7.88867 9.07477 7.83398 9.14826C6.35251 11.0278 5.56424 13.3607 5.60205 15.7536C5.59778 16.2963 5.62288 16.8388 5.67725 17.3788C6.27197 25.5409 11.5374 27.8122 16.0851 28.5881C15.7889 29.119 15.5675 29.6883 15.427 30.28C15.3119 30.749 15.5988 31.2227 16.0679 31.3378C16.537 31.453 17.0106 31.1661 17.1257 30.6969C17.2877 29.8925 17.6941 29.1578 18.2894 28.5932C18.6536 28.2747 18.6906 27.7213 18.3721 27.3572C18.2286 27.1932 18.0291 27.0885 17.8126 27.0636C12.9883 26.5168 7.98096 24.9223 7.4203 17.2199C7.37085 16.7327 7.3481 16.2432 7.35205 15.7536C7.31905 13.745 7.98064 11.7866 9.2251 10.2095C9.35669 10.0318 9.50366 9.86945 9.64893 9.7088C9.87077 9.46399 9.93625 9.11514 9.81812 8.80646C9.66879 8.41179 9.55493 8.00463 9.47803 7.58966C9.26846 6.18285 9.40817 4.74613 9.88477 3.40607C11.963 3.69542 13.9257 4.53635 15.5687 5.84137C15.7809 5.9845 16.0453 6.02701 16.2916 5.95758C20.1844 4.90143 24.2883 4.90143 28.181 5.95758C28.4287 6.0268 28.6943 5.98364 28.9073 5.83966C30.5388 4.52118 32.5007 3.67523 34.5795 3.39411C35.0505 4.71398 35.193 6.1288 34.9948 7.51618C34.9174 7.95709 34.7966 8.38936 34.6342 8.80646C34.516 9.11514 34.5814 9.46388 34.8034 9.7088C34.9572 9.87799 35.111 10.0677 35.2459 10.2369C36.4933 11.8018 37.1558 13.7527 37.1191 15.7536C37.1232 16.2541 37.0986 16.7545 37.0457 17.2524C36.4902 24.9189 31.4641 26.5134 26.6208 27.0636C26.1403 27.1188 25.7954 27.5532 25.8506 28.0338C25.8755 28.2502 25.9801 28.4496 26.144 28.5931C26.7473 29.1617 27.1513 29.9096 27.296 30.7259C27.4451 31.3022 27.5146 31.8962 27.5027 32.4913V36.7946C27.484 37.9772 27.484 38.8642 27.484 39.2708C27.4846 39.754 27.877 40.1453 28.3602 40.1446C28.8424 40.1439 29.2332 39.7531 29.234 39.2708C29.234 38.8675 29.234 37.9908 29.2527 36.8082V32.4913C29.2665 31.7502 29.1785 31.0108 28.9913 30.2935C28.8596 29.6972 28.6433 29.1229 28.3487 28.588C32.9134 27.8138 38.1992 25.5443 38.7889 17.4146C38.8468 16.8628 38.8736 16.3083 38.8692 15.7535C38.9091 13.3539 38.1107 11.0155 36.6116 9.14142Z" fill="#F7F6F8"/>
</svg>
