<svg width="36" height="36" viewBox="0 0 36 36" fill="none" xmlns="http://www.w3.org/2000/svg">
<g id="Iconsax/Linear/celo">
<path id="Vector" d="M22.5 24C25.2848 24 27.9555 22.8938 29.9246 20.9246C31.8938 18.9555 33 16.2848 33 13.5C33 10.7152 31.8938 8.04451 29.9246 6.07538C27.9555 4.10625 25.2848 3 22.5 3C19.7152 3 17.0445 4.10625 15.0754 6.07538C13.1062 8.04451 12 10.7152 12 13.5C12 16.2848 13.1062 18.9555 15.0754 20.9246C17.0445 22.8938 19.7152 24 22.5 24Z" stroke="black" stroke-width="1.5" stroke-miterlimit="10"/>
<path id="Vector_2" d="M13.5 33C16.2848 33 18.9555 31.8938 20.9246 29.9246C22.8938 27.9555 24 25.2848 24 22.5C24 19.7152 22.8938 17.0445 20.9246 15.0754C18.9555 13.1062 16.2848 12 13.5 12C10.7152 12 8.04451 13.1062 6.07538 15.0754C4.10625 17.0445 3 19.7152 3 22.5C3 25.2848 4.10625 27.9555 6.07538 29.9246C8.04451 31.8938 10.7152 33 13.5 33Z" stroke="black" stroke-width="1.5" stroke-miterlimit="10"/>
</g>
</svg>
