<svg width="36" height="36" viewBox="0 0 36 36" fill="none" xmlns="http://www.w3.org/2000/svg">
<rect width="36" height="36" fill="#4B4949"/>
<g id="Landing Page" clip-path="url(#clip0_0_1)">
<rect width="1920" height="5666" transform="translate(-170 -2266)" fill="#F7F6F8"/>
<g id="Frame">
<g id="Feature">
<g id="Feature_2">
<g id="One">
<g id="Notification Icon">
<rect id="Rectangle 37" x="-18" y="-17" width="72" height="70" rx="10" fill="#F8C5A9"/>
<g id="Iconsax/Linear/notification">
<path id="Vector" d="M18.03 4.36499C13.065 4.36499 9.03001 8.39999 9.03001 13.365V17.7C9.03001 18.615 8.64001 20.01 8.17501 20.79L6.45001 23.655C5.38501 25.425 6.12001 27.39 8.07001 28.05C14.535 30.21 21.51 30.21 27.975 28.05C29.79 27.45 30.585 25.305 29.595 23.655L27.87 20.79C27.42 20.01 27.03 18.615 27.03 17.7V13.365C27.03 8.41499 22.98 4.36499 18.03 4.36499Z" stroke="black" stroke-width="1.5" stroke-miterlimit="10" stroke-linecap="round"/>
<path id="Vector_2" d="M20.805 4.79991C18.9911 4.2833 17.0689 4.2833 15.255 4.79991C15.69 3.68991 16.77 2.90991 18.03 2.90991C19.29 2.90991 20.37 3.68991 20.805 4.79991Z" stroke="black" stroke-width="1.5" stroke-miterlimit="10" stroke-linecap="round" stroke-linejoin="round"/>
<path id="Vector_3" d="M22.53 28.5901C22.53 31.0651 20.505 33.0901 18.03 33.0901C16.8 33.0901 15.66 32.5801 14.85 31.7701C14.0073 30.9261 13.5327 29.7828 13.53 28.5901" stroke="black" stroke-width="1.5" stroke-miterlimit="10"/>
</g>
</g>
</g>
</g>
</g>
</g>
</g>
<defs>
<clipPath id="clip0_0_1">
<rect width="1920" height="5666" fill="white" transform="translate(-170 -2266)"/>
</clipPath>
</defs>
</svg>
