<svg width="36" height="36" viewBox="0 0 36 36" fill="none" xmlns="http://www.w3.org/2000/svg">
<rect width="36" height="36" fill="#4B4949"/>
<g id="Landing Page" clip-path="url(#clip0_0_1)">
<rect width="1920" height="5666" transform="translate(-812 -2269)" fill="#F7F6F8"/>
<g id="Frame">
<g id="Feature">
<g id="Feature_2">
<g id="Second">
<g id="Notification Icon">
<rect id="Rectangle 37" x="-18" y="-17" width="72" height="70" rx="10" fill="#DEA9F8"/>
<g id="Iconsax/Linear/ui8">
<path id="Vector" d="M28.5 14.85V25.2C28.5 26.4 27.9 27.45 26.85 27.9L17.1 32.55C16.35 32.85 15.3 32.85 14.55 32.55L4.80002 27.9C3.75002 27.45 3.15002 26.4 3.15002 25.2V13.95C3.15002 12.75 3.75002 11.7 4.80002 11.25L14.55 6.6C15.3 6.3 16.35 6.3 17.1 6.6L21 8.55V9C21 12.3 23.7 15 27 15C27.6 15 28.05 15 28.5 14.85Z" stroke="black" stroke-width="1.5" stroke-miterlimit="10" stroke-linejoin="round"/>
<path id="Vector_2" d="M10.5 15.75V20.25C10.5 21.9 11.85 23.25 13.5 23.25C15.15 23.25 16.5 21.9 16.5 20.25V15.75M21 15.75V23.1" stroke="black" stroke-width="1.5" stroke-miterlimit="10" stroke-linecap="round"/>
<path id="Vector_3" d="M33 9C33 11.85 31.05 14.1 28.5 14.85C28.05 15 27.6 15 27 15C23.7 15 21 12.3 21 9V8.55C21.3 5.55 23.85 3 27 3C30.3 3 33 5.7 33 9Z" stroke="black" stroke-width="1.5" stroke-miterlimit="10"/>
<path id="Vector_4" d="M28.65 8.84995C28.95 8.54995 29.25 8.09995 29.25 7.64995C29.25 6.44995 28.35 5.69995 27 5.69995C25.65 5.69995 24.75 6.44995 24.75 7.64995C24.75 8.09995 24.9 8.54995 25.35 8.84995C24.9 9.14995 24.6 9.74995 24.6 10.35C24.6 11.55 25.5 12.3 27 12.3C28.5 12.3 29.4 11.55 29.4 10.35C29.4 9.74995 29.1 9.14995 28.65 8.84995ZM27 8.24995C26.55 8.24995 26.4 8.09995 26.4 7.64995C26.4 7.19995 26.7 7.04995 27 7.04995C27.3 7.04995 27.6 7.19995 27.6 7.64995C27.6 8.09995 27.45 8.24995 27 8.24995ZM27 9.44995C27.45 9.44995 27.9 9.59995 27.9 10.2C27.9 10.65 27.6 10.95 27 10.95C26.4 10.95 26.1 10.65 26.1 10.2C26.1 9.59995 26.85 9.44995 27 9.44995Z" fill="black"/>
</g>
</g>
</g>
</g>
</g>
</g>
</g>
<defs>
<clipPath id="clip0_0_1">
<rect width="1920" height="5666" fill="white" transform="translate(-812 -2269)"/>
</clipPath>
</defs>
</svg>
